<svg xmlns="http://www.w3.org/2000/svg" version="1.1" xmlns:xlink="http://www.w3.org/1999/xlink" xmlns:svgjs="http://svgjs.dev/svgjs" width="1500" height="1500" viewBox="0 0 1500 1500"><rect width="1500" height="1500" fill="#ffffff"></rect><g transform="matrix(0.6666666666666666,0,0,0.6666666666666666,250.0000000000001,187.66666666666674)"><svg viewBox="0 0 320 360" data-background-color="#5c0a95" preserveAspectRatio="xMidYMid meet" height="1687" width="1500" xmlns="http://www.w3.org/2000/svg" xmlns:xlink="http://www.w3.org/1999/xlink"><g id="tight-bounds" transform="matrix(1,0,0,1,0,0)"><svg viewBox="0 0 320 360" height="360" width="320"><g><svg></svg></g><g><svg viewBox="0 0 320 360" height="360" width="320"><g><path d="M320 204.145c-0.08-8.44-5.414-15.128-5.494-23.568-0.04-8.44 5.215-18.631 5.136-27.071-2.667-8.002-9.833-12.7-12.501-20.702-2.667-8.002-0.836-19.348-3.463-27.35-5.016-6.808-13.297-9.037-18.274-15.805-5.016-6.808-6.768-18.154-11.744-24.921-6.847-4.897-15.407-4.499-22.294-9.396-6.847-4.897-12.023-15.168-18.91-20.065-8.042-2.548-16.044 0.518-24.086-2.07-8.042-2.548-16.123-10.709-24.165-13.257-8.44 0.08-15.128 5.414-23.568 5.494-8.44 0.04-18.631-5.215-27.071-5.135-8.002 2.667-12.7 9.833-20.702 12.5-8.002 2.667-19.348 0.836-27.35 3.504-6.808 5.016-9.037 13.297-15.805 18.273-6.808 5.016-18.154 6.768-24.922 11.784-4.897 6.847-4.499 15.407-9.395 22.294-4.897 6.847-15.168 12.023-20.065 18.91-2.548 8.042 0.478 16.044-2.07 24.086-2.548 8.042-10.709 16.123-13.257 24.165 0.04 8.44 5.414 15.128 5.494 23.568 0.04 8.44-5.215 18.631-5.136 27.071 2.667 8.002 9.833 12.7 12.501 20.702 2.667 8.002 0.836 19.348 3.503 27.35 5.016 6.808 13.297 9.037 18.273 15.845 5.016 6.808 6.768 18.154 11.745 24.921 6.847 4.897 15.407 4.499 22.294 9.396 6.847 4.897 12.023 15.168 18.91 20.065 8.042 2.548 16.044-0.478 24.086 2.07 8.042 2.548 16.123 10.709 24.165 13.257 8.44-0.08 15.128-5.414 23.568-5.494 8.44-0.04 18.631 5.215 27.071 5.135 8.002-2.667 12.7-9.833 20.702-12.5 8.002-2.667 19.348-0.836 27.35-3.504 6.808-5.016 9.037-13.297 15.845-18.273 6.808-5.016 18.154-6.768 24.921-11.744 4.897-6.847 4.499-15.407 9.396-22.294 4.897-6.847 15.168-12.023 20.064-18.91 2.548-8.042-0.478-16.044 2.071-24.086 2.468-8.121 10.63-16.203 13.177-24.245zM305.987 227.395c-3.623 7.126-12.501 13.456-16.164 20.582-3.623 7.126-2.03 15.088-5.653 22.215-5.653 5.653-16.044 8.918-21.737 14.57-5.653 5.653-6.569 13.735-12.261 19.388-7.126 3.623-18.034 3.503-25.161 7.166-7.126 3.623-10.51 11.028-17.636 14.651-7.922 1.234-18.233-2.229-26.156-0.996-7.922 1.234-13.416 7.246-21.299 8.48-7.922-1.234-16.641-7.763-24.563-8.997-7.922-1.274-14.969 2.747-22.891 1.473-7.126-3.623-13.456-12.54-20.582-16.163-7.126-3.623-15.088-2.03-22.255-5.654-5.653-5.653-8.918-16.044-14.571-21.736-5.653-5.653-13.735-6.609-19.387-12.262-3.623-7.126-3.503-18.034-7.166-25.161-3.623-7.126-11.028-10.51-14.651-17.636-1.234-7.922 2.229-18.233 0.995-26.156-1.274-7.922-7.246-13.416-8.479-21.298 1.274-7.922 7.763-16.641 8.997-24.564 1.234-7.922-2.747-14.969-1.473-22.891 3.623-7.126 12.54-13.456 16.163-20.582 3.623-7.126 2.03-15.088 5.653-22.254 5.653-5.653 16.044-8.918 21.737-14.571 5.653-5.653 6.609-13.735 12.262-19.388 7.126-3.623 18.034-3.503 25.16-7.166 7.126-3.623 10.51-11.028 17.637-14.651 7.922-1.234 18.233 2.229 26.155 0.996 7.922-1.234 13.416-7.246 21.299-8.48 7.922 1.234 16.641 7.763 24.564 8.997 7.922 1.274 14.969-2.747 22.891-1.473 7.126 3.623 13.456 12.54 20.582 16.163 7.126 3.623 15.088 2.03 22.254 5.654 5.653 5.653 8.918 16.044 14.571 21.736 5.653 5.653 13.735 6.609 19.388 12.262 3.623 7.126 3.503 18.034 7.166 25.161 3.623 7.126 11.028 10.51 14.65 17.636 1.274 7.922-2.229 18.233-0.995 26.156 1.234 7.922 7.246 13.416 8.48 21.298-1.234 7.922-7.763 16.641-8.997 24.564-1.234 7.922 2.747 15.009 1.473 22.931z" fill="#000000" fill-rule="nonzero" stroke="none" stroke-width="1" stroke-linecap="butt" stroke-linejoin="miter" stroke-miterlimit="10" stroke-dasharray="" stroke-dashoffset="0" font-family="none" font-weight="none" font-size="none" text-anchor="none" style="mix-blend-mode: normal" data-fill-palette-color="tertiary"></path></g><g transform="matrix(1,0,0,1,48,134.78008344400317)"><svg viewBox="0 0 224 90.43983311199365" height="90.43983311199365" width="224"><g><svg viewBox="0 0 224 90.43983311199365" height="90.43983311199365" width="224"><g><svg viewBox="0 0 224 90.43983311199365" height="90.43983311199365" width="224"><g id="textblocktransform"><svg viewBox="0 0 224 90.43983311199365" height="90.43983311199365" width="224" id="textblock"><g><svg viewBox="0 0 224 62.018287529785546" height="62.018287529785546" width="224"><g transform="matrix(1,0,0,1,0,0)"><svg width="224" viewBox="154.67000000000002 -37.989999999999995 307.36999999999995 82.1" height="62.018287529785546" data-palette-color="#dbee49"><svg></svg><svg></svg><g class="wordmark-text-0" data-fill-palette-color="primary" id="text-0"><path d="M207.48 1.46v0c-1.92-0.08-3.643-0.247-5.17-0.5-1.533-0.247-3.01-0.653-4.43-1.22-1.427-0.56-2.623-1.267-3.59-2.12-0.967-0.853-1.773-1.947-2.42-3.28-0.64-1.34-1.033-2.887-1.18-4.64v0c0-0.313 0.16-0.493 0.48-0.54v0c0.1 0.033 0.263 0.05 0.49 0.05v0c1.353 0 3.407-0.033 6.16-0.1 2.747-0.067 4.797-0.1 6.15-0.1v0c0.34 0 0.607 0.11 0.8 0.33 0.2 0.22 0.36 0.49 0.48 0.81 0.12 0.313 0.267 0.63 0.44 0.95 0.173 0.32 0.467 0.59 0.88 0.81 0.413 0.22 0.947 0.33 1.6 0.33v0c0.793 0 1.497-0.227 2.11-0.68 0.607-0.447 0.91-1.05 0.91-1.81v0c0-0.507-0.26-0.973-0.78-1.4-0.52-0.42-1.207-0.763-2.06-1.03-0.853-0.273-1.667-0.503-2.44-0.69-0.773-0.187-1.567-0.347-2.38-0.48-0.813-0.14-1.287-0.227-1.42-0.26v0c-3.953-1.073-6.797-2.41-8.53-4.01-1.733-1.593-2.6-3.773-2.6-6.54v0c0-1.953 0.357-3.707 1.07-5.26 0.72-1.553 1.657-2.823 2.81-3.81 1.153-0.987 2.52-1.807 4.1-2.46 1.58-0.66 3.177-1.127 4.79-1.4 1.613-0.267 3.28-0.4 5-0.4v0c4.573 0 8.22 0.847 10.94 2.54v0c0.993 0.993 1.723 1.747 2.19 2.26 0.46 0.513 0.907 1.11 1.34 1.79 0.433 0.687 0.733 1.36 0.9 2.02 0.173 0.66 0.293 1.47 0.36 2.43v0l-0.88 0.88c-3.34 0.127-7.083 0.19-11.23 0.19v0c-0.52 0-0.94-0.057-1.26-0.17-0.32-0.113-0.533-0.26-0.64-0.44-0.1-0.18-0.203-0.367-0.31-0.56-0.107-0.193-0.207-0.38-0.3-0.56-0.087-0.18-0.273-0.327-0.56-0.44-0.28-0.113-0.657-0.17-1.13-0.17v0c-0.133 0-0.343 0.023-0.63 0.07-0.28 0.047-0.613 0.123-1 0.23-0.38 0.107-0.71 0.27-0.99 0.49-0.273 0.22-0.41 0.477-0.41 0.77v0c0 0.36 0.183 0.687 0.55 0.98 0.367 0.293 0.753 0.503 1.16 0.63 0.407 0.133 0.91 0.277 1.51 0.43 0.607 0.153 0.983 0.253 1.13 0.3v0c3.547 0.9 5.66 1.453 6.34 1.66v0c3.567 1.127 6.09 2.6 7.57 4.42v0c1.367 1.693 2.05 3.817 2.05 6.37v0c0 1.547-0.2 2.957-0.6 4.23-0.393 1.267-0.917 2.34-1.57 3.22-0.653 0.88-1.467 1.66-2.44 2.34-0.98 0.687-1.97 1.233-2.97 1.64-1 0.407-2.133 0.75-3.4 1.03-1.273 0.273-2.443 0.47-3.51 0.59-1.067 0.127-2.227 0.22-3.48 0.28zM237.61 0.63h-2.88c-0.453 0-0.983 0.013-1.59 0.04-0.6 0.027-1.063 0.047-1.39 0.06-0.327 0.02-0.697 0.017-1.11-0.01-0.413-0.027-0.727-0.083-0.94-0.17-0.213-0.087-0.437-0.22-0.67-0.4-0.24-0.18-0.41-0.427-0.51-0.74-0.107-0.307-0.197-0.687-0.27-1.14-0.073-0.46-0.11-1.007-0.11-1.64v0c0-3.513 0.063-8.31 0.19-14.39 0.133-6.08 0.2-10.543 0.2-13.39v0c0-3.52 0.18-5.377 0.54-5.57v0h9.08c1.607 0 2.807 0.093 3.6 0.28 0.787 0.187 1.31 0.467 1.57 0.84 0.26 0.38 0.39 0.95 0.39 1.71v0c0 0.233-0.013 0.677-0.04 1.33-0.033 0.66-0.05 1.21-0.05 1.65v0 1.12c0 0.527-0.027 1.31-0.08 2.35-0.047 1.04-0.07 1.82-0.07 2.34v0 0.49c0.033 0.1 0.05 0.23 0.05 0.39v0h0.98c0.273 0 0.693 0.01 1.26 0.03 0.573 0.013 0.997 0.02 1.27 0.02v0c0.753 0 1.307-0.05 1.66-0.15v0-10.15c0-0.813 0.043-1.397 0.13-1.75 0.08-0.347 0.193-0.567 0.34-0.66 0.147-0.087 0.413-0.13 0.8-0.13v0c0.213 0 0.557 0.007 1.03 0.02 0.473 0.02 0.813 0.03 1.02 0.03v0l1.81-0.08c1.22-0.047 2.31-0.07 3.27-0.07v0c4.427 0 6.64 0.49 6.64 1.47v0c0 0.26 0.01 0.633 0.03 1.12 0.013 0.487 0.02 0.86 0.02 1.12v0c0 0.573-0.007 1.403-0.02 2.49-0.02 1.093-0.03 1.923-0.03 2.49v0c0 1.693 0.027 4.217 0.08 7.57 0.047 3.353 0.07 5.877 0.07 7.57v0c0 0.147-0.007 0.33-0.02 0.55-0.02 0.22-0.03 0.363-0.03 0.43v0 1.17c0 1.04 0.017 1.82 0.05 2.34v0 0.54c-0.033 0.067-0.05 0.163-0.05 0.29v0c0 0.86 0.017 2.17 0.05 3.93 0.033 1.76 0.05 3.07 0.05 3.93v0c-0.113 0.587-1.677 0.88-4.69 0.88v0h-10.15l-0.74-1.02v-1.62c0-1.087 0.01-2.697 0.03-4.83 0.013-2.133 0.02-3.743 0.02-4.83v0c0-0.373-0.043-0.63-0.13-0.77-0.093-0.14-0.277-0.21-0.55-0.21v0h-0.88c-1.107 0-2.117 0.067-3.03 0.2v0c0 1.347-0.017 3.377-0.05 6.09-0.033 2.707-0.05 4.743-0.05 6.11v0c-0.193 0.487-2.227 0.73-6.1 0.73zM284.09 0.63h-15.77c0.067-4.733 0.183-8.2 0.35-10.4v0c0-6.833 0.097-13.767 0.29-20.8v0c-0.067-1.367-0.1-2.373-0.1-3.02v0-0.74c-0.067-0.713-0.1-1.297-0.1-1.75v0c0-0.313 0.147-0.59 0.44-0.83v0c2.673 0.193 6.743 0.29 12.21 0.29v0c1.3 0 2.193-0.033 2.68-0.1v0zM324.77 0.1v0c-0.36 0.353-1.113 0.563-2.26 0.63-1.147 0.067-2.56 0.05-4.24-0.05-1.673-0.093-2.567-0.14-2.68-0.14v0c-1.107 0-1.903-0.017-2.39-0.05v0h-2.45c-0.353-0.113-0.653-0.647-0.9-1.6-0.24-0.953-0.48-2.32-0.72-4.1-0.233-1.787-0.36-2.737-0.38-2.85v0c-0.06-1.607-0.32-2.667-0.78-3.18-0.453-0.513-1.283-0.77-2.49-0.77v0h-1.07v11.91c-0.033 0.2-0.207 0.363-0.52 0.49-0.307 0.133-0.75 0.22-1.33 0.26-0.573 0.04-1.083 0.063-1.53 0.07-0.453 0.007-1.043 0.003-1.77-0.01-0.733-0.02-1.183-0.03-1.35-0.03v0h-3.51c-1.987 0-3.483 0.017-4.49 0.05v0c-0.233-0.093-0.463-0.207-0.69-0.34v0-36.43c0-0.453 0.65-0.68 1.95-0.68v0h21.29c3.7 0.1 6.513 0.98 8.44 2.64 1.927 1.66 2.89 4.003 2.89 7.03v0c0 3.94-1.983 6.82-5.95 8.64v0c0.727 0.227 1.383 0.543 1.97 0.95 0.587 0.407 1.077 0.843 1.47 1.31 0.387 0.467 0.727 1.023 1.02 1.67 0.293 0.653 0.523 1.263 0.69 1.83 0.16 0.573 0.3 1.25 0.42 2.03 0.127 0.78 0.213 1.457 0.26 2.03 0.047 0.567 0.107 1.243 0.18 2.03 0.073 0.793 0.137 1.417 0.19 1.87v0 2.15c0.047 0.26 0.197 0.627 0.45 1.1 0.253 0.473 0.41 0.823 0.47 1.05v0c0 0.327-0.063 0.49-0.19 0.49zM304.26-26.37v0c0 0.98 0.01 1.707 0.03 2.18 0.013 0.467 0.1 1.083 0.26 1.85 0.167 0.767 0.413 1.313 0.74 1.64v0c0.68 0 1.327-0.073 1.94-0.22 0.607-0.147 1.197-0.383 1.77-0.71 0.567-0.327 1.017-0.81 1.35-1.45 0.333-0.647 0.5-1.417 0.5-2.31v0c0-0.507-0.09-0.95-0.27-1.33-0.173-0.38-0.433-0.687-0.78-0.92-0.34-0.227-0.677-0.41-1.01-0.55-0.333-0.133-0.74-0.23-1.22-0.29-0.48-0.053-0.86-0.09-1.14-0.11-0.273-0.013-0.607-0.02-1-0.02v0h-0.58c-0.247 0.113-0.407 0.34-0.48 0.68-0.073 0.34-0.11 0.86-0.11 1.56zM327.45-32.62v0c0-2.653 0.277-4.133 0.83-4.44v0c0.167 0.033 0.397 0.05 0.69 0.05v0h0.78c0.507 0 1.337-0.017 2.49-0.05 1.153-0.033 2.033-0.05 2.64-0.05v0c2.307 0 4.173 0.093 5.6 0.28 1.427 0.187 2.227 0.533 2.4 1.04v0l-0.29 25.19h0.54c1.3-0.06 2.21-0.087 2.73-0.08 0.52 0.007 1.477 0.04 2.87 0.1 1.393 0.053 2.733 0.08 4.02 0.08v0c1.053 0 1.837 0.063 2.35 0.19 0.513 0.12 0.77 0.367 0.77 0.74v0 9.37c-0.213 0.587-3.843 0.88-10.89 0.88v0h-16.89c-0.393-0.567-0.59-1.477-0.59-2.73v0-6.93c0-2.04 0.017-5.053 0.05-9.04 0.033-3.987 0.05-6.997 0.05-9.03v0c0-0.373-0.023-1.203-0.07-2.49-0.053-1.287-0.08-2.313-0.08-3.08zM358.07-0.88v0-0.93c0-2.78 0.033-6.89 0.1-12.33 0.06-5.433 0.09-9.54 0.09-12.32v0-10.11h28.42v8.01c0 0.047 0 0.167 0 0.36 0 0.193 0 0.323 0 0.39 0 0.067-0.007 0.187-0.02 0.36-0.02 0.167-0.05 0.283-0.09 0.35-0.04 0.067-0.097 0.16-0.17 0.28-0.073 0.12-0.157 0.207-0.25 0.26-0.1 0.047-0.233 0.09-0.4 0.13-0.16 0.04-0.337 0.06-0.53 0.06v0h-0.69c-4.213 0-8.053-0.063-11.52-0.19v0c-0.033 0.26-0.087 0.663-0.16 1.21-0.073 0.54-0.13 1.02-0.17 1.44-0.04 0.413-0.06 0.813-0.06 1.2v0h11.62c0.487 0 0.813 0.067 0.98 0.2 0.16 0.133 0.24 0.343 0.24 0.63v0c0 0.087-0.007 0.22-0.02 0.4-0.02 0.173-0.03 0.303-0.03 0.39v0c0 0.78 0.027 1.933 0.08 3.46 0.047 1.533 0.07 2.69 0.07 3.47v0c-0.047 0.327-0.177 0.49-0.39 0.49v0c-0.1 0-0.183-0.033-0.25-0.1v0c-5.14 0.26-8.947 0.39-11.42 0.39v0h-0.64v3.52c1.453 0 3.55-0.067 6.29-0.2 2.74-0.127 4.797-0.19 6.17-0.19v0c1.073 0 1.69 0.227 1.85 0.68v0 1.86c0 0.78 0.017 1.933 0.05 3.46 0.033 1.533 0.05 2.69 0.05 3.47v0c0 0.813-0.327 1.22-0.98 1.22v0c-0.847 0-2.147-0.007-3.9-0.02-1.76-0.02-3.097-0.03-4.01-0.03v0c-2.34 0-5.693 0.06-10.06 0.18-4.36 0.127-7.517 0.197-9.47 0.21v0l-0.68-0.78c-0.067-0.453-0.1-0.747-0.1-0.88zM426.01-35.69v0c-1.02 2.047-2.937 5.727-5.75 11.04-2.807 5.32-4.927 9.467-6.36 12.44v0 12.21c-0.08 0.28-0.183 0.48-0.31 0.6-0.133 0.12-0.353 0.18-0.66 0.18v0c-1.533 0-3.81 0.017-6.83 0.05-3.013 0.033-5.327 0.05-6.94 0.05v0c-0.587-0.587-0.88-1.27-0.88-2.05v0c0.067-0.36 0.107-0.767 0.12-1.22 0.02-0.46 0.02-1.04 0-1.74-0.013-0.7-0.02-1.147-0.02-1.34v0-1.76c0-3.887-0.813-7.383-2.44-10.49v0c-0.247-0.507-0.503-1.037-0.77-1.59-0.273-0.553-0.53-1.09-0.77-1.61-0.247-0.52-0.5-1.05-0.76-1.59-0.26-0.54-0.517-1.077-0.77-1.61-0.253-0.54-0.5-1.07-0.74-1.59-0.247-0.52-0.503-1.057-0.77-1.61-0.267-0.553-0.533-1.083-0.8-1.59v0l-4.17-7c0-0.213 0.17-0.41 0.51-0.59 0.347-0.18 0.69-0.27 1.03-0.27v0h6.15c0.847 0 2.12 0.01 3.82 0.03 1.7 0.013 2.967 0.02 3.8 0.02v0c0.227 0.033 0.477 0.27 0.75 0.71 0.28 0.44 0.57 1.033 0.87 1.78 0.3 0.747 0.597 1.54 0.89 2.38 0.293 0.84 0.587 1.763 0.88 2.77 0.293 1.013 0.55 1.9 0.77 2.66 0.22 0.767 0.44 1.55 0.66 2.35 0.22 0.793 0.363 1.313 0.43 1.56v0l4.46-14.31h13.77c0.233 0.033 0.407 0.127 0.52 0.28 0.113 0.16 0.217 0.443 0.31 0.85z" fill="#000000" fill-rule="nonzero" stroke="none" stroke-width="1" stroke-linecap="butt" stroke-linejoin="miter" stroke-miterlimit="10" stroke-dasharray="" stroke-dashoffset="0" font-family="none" font-weight="none" font-size="none" text-anchor="none" style="mix-blend-mode: normal" data-fill-palette-color="primary" opacity="1"></path><path d="M171.46 44.01v0c-1.92-0.08-3.643-0.247-5.17-0.5-1.533-0.247-3.01-0.653-4.43-1.22-1.427-0.56-2.623-1.267-3.59-2.12-0.967-0.853-1.773-1.947-2.42-3.28-0.64-1.34-1.033-2.887-1.18-4.64v0c0-0.313 0.16-0.493 0.48-0.54v0c0.1 0.033 0.263 0.05 0.49 0.05v0c1.353 0 3.407-0.033 6.16-0.1 2.747-0.067 4.797-0.1 6.15-0.1v0c0.34 0 0.607 0.11 0.8 0.33 0.2 0.22 0.36 0.49 0.48 0.81 0.12 0.313 0.267 0.63 0.44 0.95 0.173 0.32 0.467 0.59 0.88 0.81 0.413 0.22 0.947 0.33 1.6 0.33v0c0.793 0 1.497-0.227 2.11-0.68 0.607-0.447 0.91-1.05 0.91-1.81v0c0-0.507-0.26-0.973-0.78-1.4-0.52-0.42-1.207-0.763-2.06-1.03-0.853-0.273-1.667-0.503-2.44-0.69-0.773-0.187-1.567-0.347-2.38-0.48-0.813-0.14-1.287-0.227-1.42-0.26v0c-3.953-1.073-6.797-2.41-8.53-4.01-1.733-1.593-2.6-3.773-2.6-6.54v0c0-1.953 0.357-3.707 1.07-5.26 0.72-1.553 1.657-2.823 2.81-3.81 1.153-0.987 2.52-1.807 4.1-2.46 1.58-0.66 3.177-1.127 4.79-1.4 1.613-0.267 3.28-0.4 5-0.4v0c4.573 0 8.22 0.847 10.94 2.54v0c0.993 0.993 1.723 1.747 2.19 2.26 0.46 0.513 0.907 1.11 1.34 1.79 0.433 0.687 0.733 1.36 0.9 2.02 0.173 0.66 0.293 1.47 0.36 2.43v0l-0.88 0.88c-3.34 0.127-7.083 0.19-11.23 0.19v0c-0.52 0-0.94-0.057-1.26-0.17-0.32-0.113-0.533-0.26-0.64-0.44-0.1-0.18-0.203-0.367-0.31-0.56-0.107-0.193-0.207-0.38-0.3-0.56-0.087-0.18-0.273-0.327-0.56-0.44-0.28-0.113-0.657-0.17-1.13-0.17v0c-0.133 0-0.343 0.023-0.63 0.07-0.28 0.047-0.613 0.123-1 0.23-0.38 0.107-0.71 0.27-0.99 0.49-0.273 0.22-0.41 0.477-0.41 0.77v0c0 0.36 0.183 0.687 0.55 0.98 0.367 0.293 0.753 0.503 1.16 0.63 0.407 0.133 0.91 0.277 1.51 0.43 0.607 0.153 0.983 0.253 1.13 0.3v0c3.547 0.9 5.66 1.453 6.34 1.66v0c3.567 1.127 6.09 2.6 7.57 4.42v0c1.367 1.693 2.05 3.817 2.05 6.37v0c0 1.547-0.2 2.957-0.6 4.23-0.393 1.267-0.917 2.34-1.57 3.22-0.653 0.88-1.467 1.66-2.44 2.34-0.98 0.687-1.97 1.233-2.97 1.64-1 0.407-2.133 0.75-3.4 1.03-1.273 0.273-2.443 0.47-3.51 0.59-1.067 0.127-2.227 0.22-3.48 0.28zM227.23 29.46v0c-0.28 2.447-0.923 4.61-1.93 6.49-1.013 1.88-2.31 3.41-3.89 4.59-1.573 1.18-3.367 2.07-5.38 2.67-2.007 0.6-4.2 0.9-6.58 0.9v0c-2.213 0-4.23-0.24-6.05-0.72-1.827-0.48-3.367-1.117-4.62-1.91-1.253-0.8-2.36-1.773-3.32-2.92-0.96-1.147-1.723-2.327-2.29-3.54-0.573-1.213-1.033-2.54-1.38-3.98-0.353-1.44-0.59-2.783-0.71-4.03-0.12-1.247-0.18-2.543-0.18-3.89v0-2.15c0.16-2.38 0.713-4.517 1.66-6.41 0.94-1.893 2.087-3.423 3.44-4.59 1.353-1.167 2.9-2.137 4.64-2.91 1.74-0.773 3.433-1.31 5.08-1.61 1.64-0.3 3.273-0.45 4.9-0.45v0c2.62 0 4.937 0.313 6.95 0.94 2.007 0.627 3.647 1.51 4.92 2.65 1.267 1.14 2.26 2.447 2.98 3.92 0.713 1.473 1.167 3.12 1.36 4.94v0 2.35c0 0.52-1.79 0.78-5.37 0.78v0c-0.847 0-2.02-0.017-3.52-0.05-1.507-0.033-2.497-0.05-2.97-0.05v0c-0.08 0-0.203 0.007-0.37 0.02-0.16 0.02-0.28 0.03-0.36 0.03v0c-0.427 0-0.75-0.177-0.97-0.53-0.22-0.347-0.367-0.773-0.44-1.28-0.073-0.5-0.163-1.003-0.27-1.51-0.1-0.507-0.317-0.933-0.65-1.28-0.34-0.353-0.8-0.53-1.38-0.53-0.587 0-1.1 0.097-1.54 0.29-0.44 0.2-0.79 0.507-1.05 0.92-0.26 0.413-0.477 0.833-0.65 1.26-0.173 0.42-0.297 0.97-0.37 1.65-0.067 0.673-0.113 1.24-0.14 1.7-0.027 0.467-0.047 1.087-0.06 1.86-0.02 0.773-0.037 1.34-0.05 1.7v0c0 0.193-0.017 0.55-0.05 1.07-0.033 0.52-0.05 0.943-0.05 1.27v0c0 4.053 1.073 6.137 3.22 6.25v0c0.587 0 1.067-0.21 1.44-0.63 0.38-0.427 0.637-0.9 0.77-1.42 0.14-0.52 0.3-1.07 0.48-1.65 0.18-0.58 0.377-0.973 0.59-1.18v0h13.28c0.533 0.047 0.827 0.37 0.88 0.97zM239.58 43.18h-2.88c-0.46 0-0.99 0.013-1.59 0.04-0.6 0.027-1.063 0.047-1.39 0.06-0.327 0.02-0.697 0.017-1.11-0.01-0.413-0.027-0.727-0.083-0.94-0.17-0.213-0.087-0.437-0.22-0.67-0.4-0.24-0.18-0.413-0.427-0.52-0.74-0.1-0.307-0.187-0.687-0.26-1.14-0.073-0.46-0.11-1.007-0.11-1.64v0c0-3.513 0.063-8.31 0.19-14.39 0.133-6.08 0.2-10.543 0.2-13.39v0c0-3.52 0.177-5.377 0.53-5.57v0h9.09c1.607 0 2.807 0.093 3.6 0.28 0.787 0.187 1.31 0.467 1.57 0.84 0.26 0.38 0.39 0.95 0.39 1.71v0c0 0.233-0.017 0.677-0.05 1.33-0.033 0.66-0.05 1.21-0.05 1.65v0 1.12c0 0.527-0.023 1.31-0.07 2.35-0.047 1.04-0.07 1.82-0.07 2.34v0 0.49c0.033 0.1 0.05 0.23 0.05 0.39v0h0.97c0.28 0 0.703 0.01 1.27 0.03 0.573 0.013 0.997 0.02 1.27 0.02v0c0.753 0 1.307-0.05 1.66-0.15v0-10.15c0-0.813 0.04-1.397 0.12-1.75 0.087-0.347 0.203-0.567 0.35-0.66 0.147-0.087 0.413-0.13 0.8-0.13v0c0.213 0 0.557 0.007 1.03 0.02 0.473 0.02 0.813 0.03 1.02 0.03v0l1.81-0.08c1.22-0.047 2.31-0.07 3.27-0.07v0c4.427 0 6.64 0.49 6.64 1.47v0c0 0.26 0.01 0.633 0.03 1.12 0.013 0.487 0.02 0.86 0.02 1.12v0c0 0.573-0.007 1.403-0.02 2.49-0.02 1.093-0.03 1.923-0.03 2.49v0c0 1.693 0.023 4.217 0.07 7.57 0.053 3.353 0.08 5.877 0.08 7.57v0c0 0.147-0.01 0.33-0.03 0.55-0.013 0.22-0.02 0.363-0.02 0.43v0 1.17c0 1.04 0.017 1.82 0.05 2.34v0 0.54c-0.033 0.067-0.05 0.163-0.05 0.29v0c0 0.86 0.017 2.17 0.05 3.93 0.033 1.76 0.05 3.07 0.05 3.93v0c-0.113 0.587-1.677 0.88-4.69 0.88v0h-10.16l-0.73-1.02v-1.62c0-1.087 0.01-2.697 0.03-4.83 0.013-2.133 0.02-3.743 0.02-4.83v0c0-0.373-0.043-0.63-0.13-0.77-0.093-0.14-0.277-0.21-0.55-0.21v0h-0.88c-1.107 0-2.117 0.067-3.03 0.2v0c0 1.347-0.017 3.377-0.05 6.09-0.033 2.707-0.05 4.743-0.05 6.11v0c-0.193 0.487-2.227 0.73-6.1 0.73zM297.42 43.18l-3.03-19.67c-0.067 0.44-0.193 1.473-0.38 3.1-0.187 1.627-0.393 3.333-0.62 5.12-0.227 1.793-0.48 3.59-0.76 5.39-0.273 1.8-0.59 3.283-0.95 4.45-0.36 1.173-0.72 1.76-1.08 1.76v0c-0.7 0-1.733-0.017-3.1-0.05-1.367-0.033-2.4-0.05-3.1-0.05v0c-3.14 0-6.037 0.067-8.69 0.2v0c-0.227-0.113-0.427-0.293-0.6-0.54-0.167-0.24-0.303-0.533-0.41-0.88-0.107-0.34-0.19-0.643-0.25-0.91-0.053-0.273-0.11-0.617-0.17-1.03-0.053-0.413-0.097-0.693-0.13-0.84v0c-2.813-13.427-4.557-21.597-5.23-24.51v0l-1.7-8.21c0-0.453 0.227-0.76 0.68-0.92v0c0.387 0.033 1.003 0.05 1.85 0.05v0h1.96c0.387 0 0.947-0.017 1.68-0.05 0.733-0.033 1.263-0.05 1.59-0.05v0c0.307-0.02 0.763-0.017 1.37 0.01 0.6 0.027 0.99 0.04 1.17 0.04v0h1.41c0.167 0.033 0.413 0.05 0.74 0.05v0h0.73c0.293 0.08 0.587 0.64 0.88 1.68 0.293 1.04 0.57 2.473 0.83 4.3 0.26 1.82 0.47 3.41 0.63 4.77 0.167 1.36 0.35 3.003 0.55 4.93 0.207 1.933 0.31 2.913 0.31 2.94v0l3.1-18.58c0.78 0.067 1.397 0.1 1.85 0.1v0h1.52c1.313 0 3.22-0.007 5.72-0.02 2.5-0.02 4.37-0.03 5.61-0.03v0c0.34 0 0.55 0.13 0.63 0.39v0l3.05 20.19c0.313-3.707 0.697-7.1 1.15-10.18v0l1.46-9.91c0.113-0.387 0.683-0.58 1.71-0.58v0h1.17c0.2-0.02 0.507-0.017 0.92 0.01 0.413 0.02 0.71 0.03 0.89 0.03v0h2.15c0.6 0 1.28 0.01 2.04 0.03 0.753 0.013 1.147 0.02 1.18 0.02v0h2.88c0.147 0 0.247 0.11 0.3 0.33 0.047 0.22 0.087 0.583 0.12 1.09v0l-7.86 35.94c-0.327 0.033-0.717 0.05-1.17 0.05-0.46 0-0.877-0.007-1.25-0.02-0.373-0.007-0.803-0.013-1.29-0.02-0.493-0.007-0.893-0.01-1.2-0.01v0c-0.667 0-1.68-0.01-3.04-0.03-1.36-0.013-2.38-0.02-3.06-0.02v0c-0.087 0-1.673 0.047-4.76 0.14zM317.26 42.55v0c1.013-3.727 2.13-7.51 3.35-11.35 1.22-3.84 2.737-8.433 4.55-13.78 1.813-5.347 3.057-9.047 3.73-11.1v0c0.193-0.327 0.323-0.523 0.39-0.59v0h4.1c0.96 0 2.377-0.017 4.25-0.05 1.867-0.027 3.28-0.04 4.24-0.04v0h4.11c0.24 0 0.443 0.003 0.61 0.01 0.16 0.007 0.353 0.027 0.58 0.06 0.227 0.033 0.41 0.083 0.55 0.15 0.14 0.06 0.257 0.157 0.35 0.29 0.1 0.127 0.15 0.28 0.15 0.46v0l11.26 35.67c0 0.327-0.12 0.55-0.36 0.67-0.233 0.127-0.677 0.19-1.33 0.19v0h-2.24c-0.653 0-1.623 0.007-2.91 0.02-1.287 0.013-2.257 0.02-2.91 0.02v0c-0.193 0-0.587 0.013-1.18 0.04-0.593 0.027-1.093 0.037-1.5 0.03-0.407-0.013-0.86-0.04-1.36-0.08-0.493-0.04-0.89-0.13-1.19-0.27-0.3-0.133-0.493-0.317-0.58-0.55v0-1.61c-0.16-0.813-0.443-1.56-0.85-2.24-0.407-0.687-0.837-1.03-1.29-1.03v0h-8.4l-1.27 5.18c-0.18 0.387-1.093 0.58-2.74 0.58v0h-1.95c-0.7 0-1.74 0.027-3.12 0.08-1.387 0.047-2.43 0.07-3.13 0.07v0h-0.68c-0.26 0-0.673 0.007-1.24 0.02-0.56 0.02-0.993 0.03-1.3 0.03v0c-0.133-0.133-0.363-0.427-0.69-0.88zM336.16 19.26l-1.95 8.47 0.68 1.15h1.61c1.307 0 2.5-0.077 3.58-0.23 1.08-0.16 1.62-0.41 1.62-0.75v0l-3.15-14.06c-0.293 0-0.687 0.553-1.18 1.66-0.5 1.107-0.903 2.36-1.21 3.76zM396.32 42.65v0c-0.36 0.353-1.113 0.563-2.26 0.63-1.147 0.067-2.56 0.05-4.24-0.05-1.673-0.093-2.567-0.14-2.68-0.14v0c-1.107 0-1.907-0.017-2.4-0.05v0h-2.44c-0.353-0.113-0.653-0.647-0.9-1.6-0.247-0.953-0.487-2.32-0.72-4.1-0.233-1.787-0.36-2.737-0.38-2.85v0c-0.067-1.607-0.327-2.667-0.78-3.18-0.453-0.513-1.283-0.77-2.49-0.77v0h-1.07v11.91c-0.033 0.2-0.207 0.363-0.52 0.49-0.307 0.133-0.75 0.22-1.33 0.26-0.573 0.04-1.087 0.063-1.54 0.07-0.447 0.007-1.037 0.003-1.77-0.01-0.727-0.02-1.173-0.03-1.34-0.03v0h-3.51c-1.987 0-3.487 0.017-4.5 0.05v0c-0.227-0.093-0.453-0.207-0.68-0.34v0-36.43c0-0.453 0.65-0.68 1.95-0.68v0h21.29c3.693 0.1 6.507 0.98 8.44 2.64 1.927 1.66 2.89 4.003 2.89 7.03v0c0 3.94-1.987 6.82-5.96 8.64v0c0.733 0.227 1.393 0.543 1.98 0.95 0.587 0.407 1.077 0.843 1.47 1.31 0.387 0.467 0.727 1.023 1.02 1.67 0.293 0.653 0.52 1.263 0.68 1.83 0.167 0.573 0.31 1.25 0.43 2.03 0.127 0.78 0.213 1.457 0.26 2.03 0.047 0.567 0.107 1.243 0.18 2.03 0.073 0.793 0.133 1.417 0.18 1.87v0 2.15c0.053 0.26 0.207 0.627 0.46 1.1 0.247 0.473 0.403 0.823 0.47 1.05v0c0 0.327-0.063 0.49-0.19 0.49zM375.81 16.18v0c0 0.98 0.007 1.707 0.02 2.18 0.02 0.467 0.11 1.083 0.27 1.85 0.167 0.767 0.41 1.313 0.73 1.64v0c0.687 0 1.337-0.073 1.95-0.22 0.607-0.147 1.197-0.383 1.77-0.71 0.567-0.327 1.017-0.81 1.35-1.45 0.333-0.647 0.5-1.417 0.5-2.31v0c0-0.507-0.09-0.95-0.27-1.33-0.18-0.38-0.44-0.687-0.78-0.92-0.34-0.227-0.677-0.41-1.01-0.55-0.333-0.133-0.74-0.23-1.22-0.29-0.48-0.053-0.86-0.09-1.14-0.11-0.273-0.013-0.607-0.02-1-0.02v0h-0.58c-0.247 0.113-0.407 0.34-0.48 0.68-0.073 0.34-0.11 0.86-0.11 1.56zM395.98 13.3v0c0-0.293 0.013-0.727 0.04-1.3 0.033-0.58 0.05-0.977 0.05-1.19v0c0-0.08-0.017-0.373-0.05-0.88-0.027-0.5-0.04-0.94-0.04-1.32v0c0-1.72 0.16-2.58 0.48-2.58v0c0.133 0 0.25 0.017 0.35 0.05v0c3.4 0 8.44-0.043 15.12-0.13 6.68-0.08 11.68-0.12 15-0.12v0c0.833 0 1.36 0.073 1.58 0.22 0.22 0.147 0.33 0.433 0.33 0.86v0 0.68c0 0.847 0.007 2.097 0.02 3.75 0.02 1.647 0.03 2.903 0.03 3.77v0c0 0.847-0.23 1.27-0.69 1.27v0c-0.913 0-2.273-0.017-4.08-0.05-1.807-0.033-3.163-0.05-4.07-0.05v0 26.17c-0.113 0.487-0.39 0.747-0.83 0.78v0c-0.573 0-1.403-0.007-2.49-0.02-1.093-0.02-1.923-0.03-2.49-0.03v0c-0.033 0-0.067 0.017-0.1 0.05v0c-0.713 0-1.72-0.007-3.02-0.02-1.293-0.02-2.257-0.03-2.89-0.03v0h-1.46c-0.327 0.033-0.8 0.05-1.42 0.05v0l-0.98-1.17c0-2.473 0.083-6.15 0.25-11.03 0.16-4.887 0.24-8.567 0.24-11.04v0c0-0.113-0.003-0.3-0.01-0.56-0.007-0.26-0.01-0.47-0.01-0.63 0-0.167-0.013-0.373-0.04-0.62-0.027-0.24-0.067-0.437-0.12-0.59-0.06-0.16-0.13-0.317-0.21-0.47-0.08-0.153-0.19-0.267-0.33-0.34-0.14-0.073-0.307-0.11-0.5-0.11v0h-6.98c-0.453-0.127-0.68-1.25-0.68-3.37zM428.89 42.16v0-0.78c0-1.4 0.023-3.053 0.07-4.96 0.047-1.9 0.103-2.85 0.17-2.85v0c0.013 0.013 0.25-0.273 0.71-0.86 0.453-0.587 1.303-1.653 2.55-3.2 1.247-1.547 2.537-3.14 3.87-4.78v0l7.13-8.69c-1.48 0-3.663 0.023-6.55 0.07-2.88 0.047-5.06 0.07-6.54 0.07v0c-0.24-0.06-0.397-0.187-0.47-0.38-0.073-0.187-0.11-0.45-0.11-0.79v0-2.93c0-0.16-0.033-0.747-0.1-1.76-0.067-1.007-0.1-1.787-0.1-2.34v0c0-1.3 0.163-1.95 0.49-1.95v0c5.533 0 13.607-0.067 24.22-0.2v0h5.17c0.947 0 1.527 0.083 1.74 0.25 0.207 0.16 0.31 0.697 0.31 1.61v0c0 0.227-0.017 0.513-0.05 0.86-0.027 0.353-0.04 0.553-0.04 0.6v0 0.15c0 1.413-0.087 2.677-0.26 3.79-0.173 1.12-0.37 2.04-0.59 2.76-0.22 0.727-0.583 1.48-1.09 2.26-0.513 0.78-0.967 1.393-1.36 1.84-0.393 0.453-1.003 1.13-1.83 2.03-0.833 0.907-1.517 1.677-2.05 2.31v0l-7.08 8.4h14.06c0.18 0 0.327 0.127 0.44 0.38 0.113 0.247 0.193 0.64 0.24 1.18 0.053 0.533 0.083 0.993 0.09 1.38 0.007 0.38 0.01 0.93 0.01 1.65v0 2.24c0 0.147 0.017 0.437 0.05 0.87 0.033 0.433 0.05 0.763 0.05 0.99v0c0 0.747-0.13 1.227-0.39 1.44-0.26 0.213-0.75 0.32-1.47 0.32v0h-0.58c-3.193 0-7.95 0.047-14.27 0.14-6.327 0.1-11.077 0.15-14.25 0.15v0c-0.553 0-0.95-0.073-1.19-0.22-0.247-0.147-0.58-0.497-1-1.05z" fill="#000000" fill-rule="nonzero" stroke="none" stroke-width="1" stroke-linecap="butt" stroke-linejoin="miter" stroke-miterlimit="10" stroke-dasharray="" stroke-dashoffset="0" font-family="none" font-weight="none" font-size="none" text-anchor="none" style="mix-blend-mode: normal" data-fill-palette-color="primary" opacity="1"></path></g></svg></g></svg></g><g transform="matrix(1,0,0,1,48.35072053818071,68.82267663860206)"><svg viewBox="0 0 127.29855892363858 21.61715647339158" height="21.61715647339158" width="127.29855892363858"><g transform="matrix(1,0,0,1,0,0)"><svg width="127.29855892363858" viewBox="0.7 -37.7 285.87 48.550000000000004" height="21.61715647339158" data-palette-color="#dbee49"><path d="M28.5-34.55L34.4-34.55 29.55 0 21.2 0 17.5-27.8 13.65 0 5.45 0 0.7-34.55 6.85-34.55 10.05-5.1 14.2-34.55 20.95-34.55 25-5.1 28.5-34.55ZM56.8-13.85Q56.8-13.4 56.65-11.3L56.65-11.3 43-11.3Q43.2-7.2 44.42-5.58 45.65-3.95 47.9-3.95L47.9-3.95Q49.45-3.95 50.7-4.48 51.95-5 53.4-6.15L53.4-6.15 55.95-2.65Q52.45 0.75 47.55 0.75L47.55 0.75Q42.35 0.75 39.57-2.85 36.8-6.45 36.8-13L36.8-13Q36.8-19.55 39.45-23.35 42.1-27.15 46.95-27.15L46.95-27.15Q51.6-27.15 54.2-23.78 56.8-20.4 56.8-13.85L56.8-13.85ZM50.8-15.3L50.8-15.65Q50.8-19.4 49.9-21.13 49-22.85 47-22.85L47-22.85Q45.15-22.85 44.17-21.18 43.2-19.5 43-15.3L43-15.3 50.8-15.3ZM73.25-27.15Q77.09-27.15 79.15-23.65 81.2-20.15 81.2-13.25L81.2-13.25Q81.2-6.75 78.9-3 76.59 0.75 72.59 0.75L72.59 0.75Q70.84 0.75 69.4-0.13 67.95-1 66.9-2.55L66.9-2.55 66.55 0 61.1 0 61.1-37 67.25-37.65 67.25-23.6Q68.3-25.3 69.82-26.23 71.34-27.15 73.25-27.15L73.25-27.15ZM70.95-3.9Q72.8-3.9 73.82-6 74.84-8.1 74.84-13.25L74.84-13.25Q74.84-18.6 73.92-20.58 73-22.55 71.3-22.55L71.3-22.55Q70.15-22.55 69.09-21.6 68.05-20.65 67.25-19.1L67.25-19.1 67.25-6.7Q67.9-5.45 68.87-4.67 69.84-3.9 70.95-3.9L70.95-3.9ZM108.59-37.7L114.74-37.05 114.74 0 109.29 0 108.99-3.05Q106.64 0.75 102.94 0.75L102.94 0.75Q98.84 0.75 96.67-2.93 94.49-6.6 94.49-13.2L94.49-13.2Q94.49-17.4 95.62-20.58 96.74-23.75 98.74-25.45 100.74-27.15 103.34-27.15L103.34-27.15Q106.54-27.15 108.59-24.5L108.59-24.5 108.59-37.7ZM104.69-3.9Q105.84-3.9 106.77-4.7 107.69-5.5 108.59-7L108.59-7 108.59-19.85Q106.99-22.55 104.94-22.55L104.94-22.55Q100.89-22.55 100.89-13.25L100.89-13.25Q100.89-8.2 101.89-6.05 102.89-3.9 104.69-3.9L104.69-3.9ZM139.29-13.85Q139.29-13.4 139.14-11.3L139.14-11.3 125.49-11.3Q125.69-7.2 126.91-5.58 128.14-3.95 130.39-3.95L130.39-3.95Q131.94-3.95 133.19-4.48 134.44-5 135.89-6.15L135.89-6.15 138.44-2.65Q134.94 0.75 130.04 0.75L130.04 0.75Q124.84 0.75 122.06-2.85 119.29-6.45 119.29-13L119.29-13Q119.29-19.55 121.94-23.35 124.59-27.15 129.44-27.15L129.44-27.15Q134.09-27.15 136.69-23.78 139.29-20.4 139.29-13.85L139.29-13.85ZM133.29-15.3L133.29-15.65Q133.29-19.4 132.39-21.13 131.49-22.85 129.49-22.85L129.49-22.85Q127.64-22.85 126.66-21.18 125.69-19.5 125.49-15.3L125.49-15.3 133.29-15.3ZM155.99-26.45L162.04-26.45 155.14 0 147.89 0 140.79-26.45 147.14-26.45 151.49-4.95 155.99-26.45ZM183.78-13.85Q183.78-13.4 183.63-11.3L183.63-11.3 169.98-11.3Q170.18-7.2 171.41-5.58 172.63-3.95 174.88-3.95L174.88-3.95Q176.43-3.95 177.68-4.48 178.93-5 180.38-6.15L180.38-6.15 182.93-2.65Q179.43 0.75 174.53 0.75L174.53 0.75Q169.33 0.75 166.56-2.85 163.78-6.45 163.78-13L163.78-13Q163.78-19.55 166.43-23.35 169.08-27.15 173.93-27.15L173.93-27.15Q178.58-27.15 181.18-23.78 183.78-20.4 183.78-13.85L183.78-13.85ZM177.78-15.3L177.78-15.65Q177.78-19.4 176.88-21.13 175.98-22.85 173.98-22.85L173.98-22.85Q172.13-22.85 171.16-21.18 170.18-19.5 169.98-15.3L169.98-15.3 177.78-15.3ZM193.68 0.75Q190.98 0.75 189.41-0.93 187.83-2.6 187.83-5.4L187.83-5.4 187.83-37.05 193.98-37.7 193.98-5.65Q193.98-5 194.28-4.6 194.58-4.2 195.18-4.2L195.18-4.2Q195.53-4.2 195.86-4.3 196.18-4.4 196.28-4.4L196.28-4.4 197.48-0.2Q195.78 0.75 193.68 0.75L193.68 0.75ZM209.93-27.15Q214.93-27.15 217.7-23.65 220.48-20.15 220.48-13.25L220.48-13.25Q220.48-6.65 217.68-2.95 214.88 0.75 209.93 0.75L209.93 0.75Q204.98 0.75 202.18-2.88 199.38-6.5 199.38-13.25L199.38-13.25Q199.38-19.95 202.18-23.55 204.98-27.15 209.93-27.15L209.93-27.15ZM209.93-22.5Q207.78-22.5 206.78-20.38 205.78-18.25 205.78-13.25L205.78-13.25Q205.78-8.2 206.78-6.08 207.78-3.95 209.93-3.95L209.93-3.95Q212.08-3.95 213.08-6.08 214.08-8.2 214.08-13.25L214.08-13.25Q214.08-18.3 213.08-20.4 212.08-22.5 209.93-22.5L209.93-22.5ZM237.23-27.15Q241.13-27.15 243.13-23.58 245.13-20 245.13-13.3L245.13-13.3Q245.13-6.8 242.85-3.03 240.58 0.75 236.53 0.75L236.53 0.75Q233.33 0.75 231.18-2.1L231.18-2.1 231.18 10.15 225.03 10.85 225.03-26.45 230.48-26.45 230.73-23.25Q232.03-25.25 233.63-26.2 235.23-27.15 237.23-27.15L237.23-27.15ZM234.88-3.95Q236.78-3.95 237.78-6.13 238.78-8.3 238.78-13.25L238.78-13.25Q238.78-18.45 237.93-20.5 237.08-22.55 235.28-22.55L235.28-22.55Q232.98-22.55 231.18-19.25L231.18-19.25 231.18-6.45Q232.78-3.95 234.88-3.95L234.88-3.95ZM268.57-13.85Q268.57-13.4 268.42-11.3L268.42-11.3 254.77-11.3Q254.97-7.2 256.2-5.58 257.42-3.95 259.67-3.95L259.67-3.95Q261.22-3.95 262.47-4.48 263.72-5 265.17-6.15L265.17-6.15 267.72-2.65Q264.22 0.75 259.32 0.75L259.32 0.75Q254.12 0.75 251.35-2.85 248.57-6.45 248.57-13L248.57-13Q248.57-19.55 251.22-23.35 253.87-27.15 258.72-27.15L258.72-27.15Q263.37-27.15 265.97-23.78 268.57-20.4 268.57-13.85L268.57-13.85ZM262.57-15.3L262.57-15.65Q262.57-19.4 261.67-21.13 260.77-22.85 258.77-22.85L258.77-22.85Q256.92-22.85 255.95-21.18 254.97-19.5 254.77-15.3L254.77-15.3 262.57-15.3ZM284.52-27.1Q285.67-27.1 286.57-26.75L286.57-26.75 285.57-20.85Q284.57-21.1 283.72-21.1L283.72-21.1Q281.82-21.1 280.72-19.45 279.62-17.8 279.02-14.55L279.02-14.55 279.02 0 272.87 0 272.87-26.45 278.22-26.45 278.67-21.85Q280.52-27.1 284.52-27.1L284.52-27.1Z" opacity="1" transform="matrix(1,0,0,1,0,0)" fill="#000000" class="slogan-text-1" data-fill-palette-color="secondary" id="text-1"></path></svg></g></svg></g></svg></g></svg></g></svg></g></svg></g></svg></g><defs></defs></svg><rect width="320" height="360" fill="none" stroke="none" visibility="hidden"></rect></g></svg></g></svg>