<svg xmlns="http://www.w3.org/2000/svg" version="1.1" xmlns:xlink="http://www.w3.org/1999/xlink" xmlns:svgjs="http://svgjs.dev/svgjs" width="1500" height="1500" viewBox="0 0 1500 1500"><rect width="1500" height="1500" fill="#f4efec"></rect><g transform="matrix(0.6666666666666666,0,0,0.6666666666666666,249.85778443113782,249.85778443113765)"><svg viewBox="0 0 334 334" data-background-color="#f4efec" preserveAspectRatio="xMidYMid meet" height="1500" width="1500" xmlns="http://www.w3.org/2000/svg" xmlns:xlink="http://www.w3.org/1999/xlink"><g id="tight-bounds" transform="matrix(1,0,0,1,0.04749999999998522,0.04750000000001364)"><svg viewBox="0 0 333.90454557049503 333.90454557049503" height="333.90454557049503" width="333.90454557049503"><g><svg></svg></g><g><svg viewBox="0 0 333.90454557049503 333.90454557049503" height="333.90454557049503" width="333.90454557049503"><g><path d="M0 166.952c0-92.205 74.747-166.952 166.952-166.952 92.205 0 166.952 74.747 166.953 166.952 0 92.205-74.747 166.952-166.953 166.953-92.205 0-166.952-74.747-166.952-166.953zM166.952 329.216c89.616 0 162.263-72.648 162.264-162.264 0-89.616-72.648-162.263-162.264-162.263-89.616 0-162.263 72.648-162.263 162.263 0 89.616 72.648 162.263 162.263 162.264z" data-fill-palette-color="tertiary" fill="#5201fe" stroke="transparent"></path><ellipse rx="160.27418187383762" ry="160.27418187383762" cx="166.95227278524752" cy="166.95227278524752" fill="#5201fe" stroke="transparent" stroke-width="0" fill-opacity="1" data-fill-palette-color="tertiary"></ellipse></g><g transform="matrix(1,0,0,1,68.33357314144676,71.17305217166896)"><svg viewBox="0 0 197.2373992876015 191.55844122715712" height="191.55844122715712" width="197.2373992876015"><g><svg viewBox="0 0 213.1584412271571 207.0210765471777" height="191.55844122715712" width="197.2373992876015"><g transform="matrix(1,0,0,1,0,125.67951884332145)"><svg viewBox="0 0 213.1584412271571 81.34155770385624" height="81.34155770385624" width="213.1584412271571"><g id="textblocktransform"><svg viewBox="0 0 213.1584412271571 81.34155770385624" height="81.34155770385624" width="213.1584412271571" id="textblock"><g><svg viewBox="0 0 213.1584412271571 56.191591252783496" height="56.191591252783496" width="213.1584412271571"><g transform="matrix(1,0,0,1,0,0)"><svg width="213.1584412271571" viewBox="0.55 -42.9 184.54 48.65" height="56.191591252783496" data-palette-color="#f4efec"><path d="M0.55-0.6L0.55-0.6Q0.55-5 2.48-8.2 4.4-11.4 6.5-11.4L6.5-11.4Q7.05-11.4 7.6-11.05L7.6-11.05 7.75-10.7Q7.1-9.45 6.95-7.55L6.95-7.55 6.65-7.35Q6.45-7.45 5.9-7.45 5.35-7.45 4.28-6.85 3.2-6.25 2.6-5.65L2.6-5.65Q2.25-4.95 2.25-4.05L2.25-4.05Q2.25-1.7 5.43-0.03 8.6 1.65 11.55 1.65L11.55 1.65Q17.7 1.65 17.7-5.35L17.7-5.35Q17.7-8 12.65-12L12.65-12Q10.55-13.7 8.45-15.4L8.45-15.4Q3.4-19.4 3.4-22.35L3.4-22.35Q3.4-25.85 6.55-28.88 9.7-31.9 13.7-33.3L13.7-33.3Q18-33.3 21.85-32.45L21.85-32.45 21.85-31.45Q19.25-29.05 18.95-24.05L18.95-24.05 17.7-24.05Q17.7-26.7 17.45-28.7L17.45-28.7Q15.3-29.7 12.78-29.7 10.25-29.7 8.5-28.63 6.75-27.55 6.75-25.9 6.75-24.25 8.22-22.58 9.7-20.9 11.8-19.33 13.9-17.75 15.98-16.13 18.05-14.5 19.53-12.63 21-10.75 21-9L21-9Q21-4 18.25-0.1 15.5 3.8 10.75 5.75L10.75 5.75Q4.5 5.1 0.75 2.25L0.75 2.25Q0.55 0.85 0.55-0.6ZM52.15-32.6L52.15-32.6 52.15-14.8Q52.15-5.45 52.8-1.75L52.8-1.75Q55.45-1.5 58.3-0.8L58.3-0.8 58.15 0.4Q54.95 0 50.57 0 46.2 0 43.15 0.4L43.15 0.4 42.95-0.85Q45.2-1.55 47.75-1.9L47.75-1.9Q48.25-6.95 48.3-16.4L48.3-16.4Q44.6-16.75 40.95-16.75 37.3-16.75 33.6-16.4L33.6-16.4Q33.65-5.7 34.25-1.75L34.25-1.75Q36.9-1.5 39.75-0.8L39.75-0.8 39.6 0.4Q35.9 0 31.57 0 27.25 0 24.6 0.4L24.6 0.4 24.4-0.85Q26.65-1.55 29.2-1.9L29.2-1.9Q29.75-6 29.75-14.8L29.75-14.8 29.75-17.75Q29.75-24.3 29.2-29.8L29.2-29.8 29.15-29.8Q23.25-29.8 21.6-28.2L21.6-28.2Q21.25-27.5 21.25-26 21.25-24.5 21.75-23.95L21.75-23.95 21.7-23.6Q20.45-22.85 19.2-21.5L19.2-21.5Q18.6-21.55 18.22-22 17.85-22.45 17.85-23.05L17.85-23.05Q17.85-25.5 20.8-28.9 23.75-32.3 26.3-33.2L26.3-33.2Q26.7-33.2 29.9-32.88 33.1-32.55 34.92-32.55 36.75-32.55 38.3-32.85L38.3-32.85 38.5-31.6Q36.55-30.85 34.05-30.25L34.05-30.25Q33.7-26.5 33.6-19.1L33.6-19.1Q37.4-18.6 41.15-18.6 44.9-18.6 48.3-19.05L48.3-19.05Q48.25-28 47.85-32.65L47.85-32.65Q48.8-35.7 52.47-39.3 56.15-42.9 58.9-42.9L58.9-42.9Q59.5-42.9 59.97-42.53 60.45-42.15 60.45-41.55L60.45-41.55Q59.1-40.3 58.35-39.05L58.35-39.05 58-39Q57.45-39.5 55.95-39.5 54.45-39.5 53.75-39.15L53.75-39.15Q52.15-37.3 52.15-32.6ZM69.55-30.8L69.55-30.8Q69-27.05 69-16.8 69-6.55 69.64-1.75L69.64-1.75Q72.3-1.5 75.14-0.8L75.14-0.8 75 0.4Q71.3 0 66.97 0 62.64 0 59.99 0.4L59.99 0.4 59.79-0.85Q62.04-1.55 64.59-1.9L64.59-1.9Q65.14-6 65.14-14.8L65.14-14.8 65.14-17.75Q65.14-25.85 64.49-30.65L64.49-30.65Q61.94-31 59.69-31.7L59.69-31.7 59.89-32.95Q62.54-32.55 66.87-32.55 71.19-32.55 74.89-32.95L74.89-32.95 75.05-31.75Q72.19-31.05 69.55-30.8ZM82.04-1.75L82.04-1.75Q82.69-6.55 82.69-15.53 82.69-24.5 82.19-29.9L82.19-29.9Q76.74-29.8 75.19-28.3L75.19-28.3Q74.84-27.6 74.84-26.1 74.84-24.6 75.34-24.05L75.34-24.05 75.29-23.7Q74.04-22.95 72.79-21.6L72.79-21.6Q72.19-21.65 71.82-22.1 71.44-22.55 71.44-23.15L71.44-23.15Q71.44-25.45 74.07-28.6 76.69-31.75 79.09-32.95L79.09-32.95Q83.34-32.55 91.39-32.55L91.39-32.55Q96.49-32.55 99.14-31.03 101.79-29.5 101.79-25.2L101.79-25.2Q101.79-19.1 95.54-16.7L95.54-16.7 102.54-1.9Q105.09-1.55 107.34-0.85L107.34-0.85 107.14 0.4Q104.19 0 100.77 0 97.34 0 95.79 0.2L95.79 0.2 95.59-0.5Q96.44-1.35 96.44-3.35L96.44-3.35Q96.44-7.35 91.74-16.1L91.74-16.1Q90.49-16.35 88.84-16.35L88.84-16.35 88.99-17.45 89.59-17.45Q93.19-17.45 95.14-19.23 97.09-21 97.09-24.38 97.09-27.75 95.34-28.9 93.59-30.05 89.84-30.05L89.84-30.05Q88.09-30.05 86.94-29.9L86.94-29.9Q86.54-25.45 86.54-15.55 86.54-5.65 87.09-1.9L87.09-1.9Q89.64-1.55 91.89-0.85L91.89-0.85 91.69 0.4Q89.04 0 84.72 0 80.39 0 76.69 0.4L76.69 0.4 76.54-0.8Q79.39-1.5 82.04-1.75ZM117.34-30.8L117.34-30.8Q116.69-26.4 116.69-16.82 116.69-7.25 117.09-2.75L117.09-2.75Q118.79-2.65 120.29-2.65L120.29-2.65Q126.19-2.65 127.84-4.25L127.84-4.25Q128.19-4.95 128.19-6.45 128.19-7.95 127.69-8.5L127.69-8.5 127.74-8.85Q128.99-9.6 130.24-10.95L130.24-10.95Q130.84-10.9 131.22-10.45 131.59-10 131.59-9.4L131.59-9.4Q131.59-6.95 128.64-3.55 125.69-0.15 123.14 0.75L123.14 0.75Q118.84 0.6 113.84-0.7L113.84-0.7Q113.14 0.2 112.69 1.6L112.69 1.6 111.64 1.3Q112.69-3.75 112.84-15.25L112.84-15.25 112.84-17.75Q112.84-26.5 112.29-30.65L112.29-30.65Q109.74-31 107.49-31.7L107.49-31.7 107.69-32.95Q110.34-32.55 114.67-32.55 118.99-32.55 122.69-32.95L122.69-32.95 122.84-31.75Q119.84-31.05 117.34-30.8ZM148.94-28.3L148.94-28.3Q146.54-29.7 143.24-29.7 139.94-29.7 137.89-28L137.89-28Q137.84-27.3 137.84-26.65L137.84-26.65Q137.84-18.65 146.39-18.65L146.39-18.65 146.14-16.8 145.54-16.8Q141.59-16.8 139.01-15.23 136.44-13.65 136.44-10.15 136.44-6.65 138.84-4.73 141.24-2.8 144.49-2.8 147.74-2.8 149.59-4L149.59-4Q149.94-4.7 149.94-6.2 149.94-7.7 149.44-8.25L149.44-8.25 149.49-8.6Q150.74-9.35 151.99-10.7L151.99-10.7Q152.59-10.65 152.96-10.2 153.34-9.75 153.34-9.15L153.34-9.15Q153.34-6.1 150.46-3.23 147.59-0.35 144.19 0.75L144.19 0.75Q138.84 0.75 135.29-1.85 131.74-4.45 131.74-9.25L131.74-9.25Q131.74-12.7 134.64-15 137.54-17.3 141.24-17.3L141.24-17.3 141.24-17.5Q137.84-17.7 135.56-19.4 133.29-21.1 133.29-24.1L133.29-24.1Q135.09-27.3 138.06-29.85 141.04-32.4 144.44-33.3L144.44-33.3Q147.99-33.3 151.44-32.35L151.44-32.35Q152.24-32.75 153.49-33.9L153.49-33.9 154.54-33.2Q151.24-29.2 150.49-23.65L150.49-23.65 149.19-23.65Q149.19-26.4 148.94-28.3ZM166.59-12.25L166.59-12.25 166.59-13.55 158.09-31.75Q156.14-35.95 153.84-37L153.84-37Q152.94-37 151.64-36.35 150.34-35.7 150.04-35.05L150.04-35.05 149.74-34.95Q148.39-35.85 146.74-36.35L146.74-36.35Q146.59-36.65 146.59-37.18 146.59-37.7 147.41-38.18 148.24-38.65 149.74-38.65L149.74-38.65Q152.89-38.65 157.16-36.9 161.44-35.15 163.09-33.3L163.09-33.3Q164.14-28.8 165.41-25.58 166.69-22.35 169.44-16.85L169.44-16.85Q174.99-27.7 174.99-30.45L174.99-30.45Q174.99-31.55 173.99-32.05L173.99-32.05 174.19-32.75Q176.69-32.55 179.46-32.55 182.24-32.55 184.84-32.95L184.84-32.95 185.09-31.7Q182.69-30.95 180.24-30.65L180.24-30.65 170.44-14.9Q170.44-6.55 171.09-1.75L171.09-1.75Q173.74-1.5 176.59-0.8L176.59-0.8 176.44 0.4Q172.74 0 168.41 0 164.09 0 161.44 0.4L161.44 0.4 161.24-0.85Q163.49-1.55 166.04-1.9L166.04-1.9Q166.59-6 166.59-12.25Z" opacity="1" transform="matrix(1,0,0,1,0,0)" fill="#f4efec" class="wordmark-text-0" data-fill-palette-color="quaternary" id="text-0"></path></svg></g></svg></g><g transform="matrix(1,0,0,1,0,69.45707734937561)"><svg viewBox="0 0 213.1584412271571 11.88448035448062" height="11.88448035448062" width="213.1584412271571"><g transform="matrix(1,0,0,1,0,0)"><svg width="213.1584412271571" viewBox="0.49 -38.67 703.25 39.21" height="11.88448035448062" data-palette-color="#f4efec"><path d="M17.33 0L0.49-38.16 8.94-38.16 19.29-13.53 21.68-7.57 23.56-13.53 27.37-22.51 20.51-38.16 28.47-38.16 31.27-30.71 33.89-38.16 41.85-38.16 34.99-22.51 38.87-13.33 41.21-7.57 43.02-13.43 53.42-38.16 61.87-38.16 45.02 0 37.35 0 33.96-7.57 31.2-14.92 28.44-7.57 25 0 17.33 0ZM67.77 0L67.77-38.16 100.27-38.16 100.27-31.37 75.51-31.37 75.51-23.75 97.44-23.75 97.44-17.38 75.51-17.38 75.51-6.76 100.78-6.76 100.78 0 67.77 0ZM109.38 0L109.38-38.16 129.76-38.16Q133.5-38.16 136.27-37.37 139.04-36.57 140.87-35.18 142.7-33.79 143.59-31.87 144.48-29.96 144.48-27.73L144.48-27.73Q144.48-24.1 142.19-21.36L142.19-21.36Q144.82-19.8 146.12-17.31 147.41-14.82 147.41-11.65L147.41-11.65Q147.41-8.98 146.52-6.84 145.63-4.69 143.81-3.16 141.99-1.64 139.22-0.82 136.45 0 132.69 0L132.69 0 109.38 0ZM117.11-23.51L132.74-23.51Q133.74-23.51 134.69-23.44L134.69-23.44Q136.33-25 136.33-27L136.33-27Q136.33-29.08 134.7-30.21 133.08-31.35 129.96-31.35L129.96-31.35 117.11-31.35 117.11-23.51ZM117.11-6.74L132.89-6.74Q136.01-6.74 137.63-8.08 139.26-9.42 139.26-11.87L139.26-11.87Q139.26-14.31 137.63-15.67 136.01-17.04 132.89-17.04L132.89-17.04 117.11-17.04 117.11-6.74ZM152.91-5.08L157.03-11.35Q159.11-10.18 161.24-9.24 163.38-8.3 165.67-7.65 167.97-7.01 170.5-6.67 173.02-6.32 175.88-6.32L175.88-6.32Q179.32-6.32 181.74-6.77 184.16-7.23 185.68-8.02 187.21-8.81 187.9-9.91 188.6-11.01 188.6-12.3L188.6-12.3Q188.6-14.38 186.87-15.59 185.13-16.8 181.52-16.8L181.52-16.8Q179.93-16.8 178.17-16.59 176.42-16.38 174.62-16.14 172.83-15.89 171.08-15.69 169.34-15.48 167.8-15.48L167.8-15.48Q165.23-15.48 162.88-16.14 160.52-16.8 158.7-18.12 156.88-19.43 155.81-21.41 154.74-23.39 154.74-26.03L154.74-26.03Q154.74-27.59 155.16-29.13 155.59-30.66 156.53-32.07 157.47-33.47 158.96-34.68 160.45-35.89 162.56-36.77 164.67-37.65 167.44-38.15 170.21-38.65 173.75-38.65L173.75-38.65Q176.32-38.65 178.91-38.37 181.49-38.09 183.95-37.57 186.4-37.06 188.67-36.34 190.94-35.62 192.9-34.74L192.9-34.74 189.5-28.49Q187.89-29.2 186.04-29.8 184.18-30.4 182.15-30.83 180.13-31.27 177.97-31.53 175.81-31.79 173.56-31.79L173.56-31.79Q170.36-31.79 168.3-31.32 166.24-30.86 165.01-30.14 163.79-29.42 163.32-28.53 162.84-27.64 162.84-26.76L162.84-26.76Q162.84-25.05 164.38-23.96 165.92-22.88 169.07-22.88L169.07-22.88Q170.34-22.88 171.98-23.06 173.63-23.24 175.45-23.46 177.27-23.68 179.16-23.86 181.05-24.05 182.84-24.05L182.84-24.05Q186.21-24.05 188.81-23.29 191.41-22.53 193.16-21.13 194.92-19.73 195.83-17.74 196.73-15.75 196.73-13.28L196.73-13.28Q196.73-9.99 195.2-7.41 193.68-4.83 190.86-3.06 188.04-1.29 184.06-0.38 180.08 0.54 175.2 0.54L175.2 0.54Q171.97 0.54 168.9 0.13 165.82-0.27 163-1.01 160.18-1.76 157.63-2.8 155.08-3.83 152.91-5.08L152.91-5.08ZM204.27 0L204.27-38.16 212.06-38.16 212.06 0 204.27 0ZM233.42 0L233.42-31.37 219.34-31.37 219.34-38.16 255.25-38.16 255.25-31.37 241.16-31.37 241.16 0 233.42 0ZM263.5 0L263.5-38.16 296-38.16 296-31.37 271.24-31.37 271.24-23.75 293.16-23.75 293.16-17.38 271.24-17.38 271.24-6.76 296.51-6.76 296.51 0 263.5 0ZM321.7 0L321.7-38.16 335.69-38.16Q341.82-38.16 346.34-36.84 350.85-35.52 353.82-33.07 356.79-30.62 358.24-27.11 359.69-23.61 359.69-19.24L359.69-19.24Q359.69-15.09 358.25-11.56 356.81-8.03 353.86-5.46 350.9-2.88 346.39-1.43 341.87 0.02 335.74 0.02L335.74 0.02 321.7 0ZM329.44-6.69L337.6-6.69Q341.06-6.69 343.68-7.58 346.29-8.47 348.03-10.11 349.78-11.74 350.66-14.06 351.54-16.38 351.54-19.24L351.54-19.24Q351.54-22.05 350.66-24.3 349.78-26.56 348.03-28.14 346.29-29.71 343.68-30.57 341.06-31.42 337.6-31.42L337.6-31.42 329.44-31.42 329.44-6.69ZM367.46 0L367.46-38.16 399.95-38.16 399.95-31.37 375.2-31.37 375.2-23.75 397.12-23.75 397.12-17.38 375.2-17.38 375.2-6.76 400.46-6.76 400.46 0 367.46 0ZM420.68 0L403.96-38.16 412.52-38.16 424.51-9.06 436.5-38.16 445.07-38.16 428.34 0 420.68 0ZM450.81 0L450.81-38.16 483.3-38.16 483.3-31.37 458.54-31.37 458.54-23.75 480.47-23.75 480.47-17.38 458.54-17.38 458.54-6.76 483.81-6.76 483.81 0 450.81 0ZM492.41 0L492.41-38.16 500.15-38.16 500.15-6.79 522.34-6.79 522.34 0 492.41 0ZM527.59-19.19L527.59-19.19Q527.59-23.51 529.17-27.1 530.76-30.69 533.63-33.26 536.5-35.84 540.52-37.26 544.53-38.67 549.41-38.67L549.41-38.67Q554.27-38.67 558.3-37.26 562.33-35.84 565.2-33.26 568.07-30.69 569.65-27.1 571.24-23.51 571.24-19.19L571.24-19.19Q571.24-14.84 569.65-11.22 568.07-7.59 565.2-4.98 562.33-2.37 558.3-0.92 554.27 0.54 549.41 0.54L549.41 0.54Q544.53 0.54 540.52-0.92 536.5-2.37 533.63-4.98 530.76-7.59 529.17-11.22 527.59-14.84 527.59-19.19ZM535.33-19.19L535.33-19.19Q535.33-16.24 536.39-13.87 537.45-11.5 539.34-9.83 541.24-8.15 543.81-7.25 546.39-6.35 549.41-6.35L549.41-6.35Q552.44-6.35 555.02-7.25 557.59-8.15 559.47-9.83 561.35-11.5 562.43-13.87 563.5-16.24 563.5-19.19L563.5-19.19Q563.5-22.14 562.43-24.49 561.35-26.83 559.47-28.45 557.59-30.08 555.02-30.93 552.44-31.79 549.41-31.79L549.41-31.79Q546.39-31.79 543.81-30.93 541.24-30.08 539.34-28.45 537.45-26.83 536.39-24.49 535.33-22.14 535.33-19.19ZM579.83 0L579.83-38.16 599.95-38.16Q604.35-38.16 607.57-37.21 610.79-36.25 612.92-34.46 615.04-32.67 616.08-30.08 617.11-27.49 617.11-24.24L617.11-24.24Q617.11-21.19 616.09-18.6 615.06-16.02 612.95-14.12 610.84-12.23 607.62-11.17 604.39-10.11 600-10.11L600-10.11 587.57-10.13 587.57 0 579.83 0ZM587.57-16.82L600.15-16.82Q602.34-16.82 603.99-17.35 605.64-17.87 606.75-18.84 607.86-19.8 608.41-21.18 608.96-22.56 608.96-24.24L608.96-24.24Q608.96-27.64 606.75-29.53 604.54-31.42 600.15-31.42L600.15-31.42 587.57-31.42 587.57-16.82ZM625.56 0L625.56-38.16 658.06-38.16 658.06-31.37 633.3-31.37 633.3-23.75 655.22-23.75 655.22-17.38 633.3-17.38 633.3-6.76 658.57-6.76 658.57 0 625.56 0ZM667.16 0L667.16-38.16 686.57-38.16Q690.97-38.16 694.19-37.24 697.41-36.33 699.54-34.59 701.66-32.86 702.7-30.37 703.74-27.88 703.74-24.73L703.74-24.73Q703.74-22.61 703.22-20.69 702.71-18.77 701.65-17.16 700.59-15.55 698.97-14.29 697.36-13.04 695.19-12.21L695.19-12.21 703.49 0 694.02 0 686.84-10.84 686.62-10.84 674.9-10.86 674.9 0 667.16 0ZM674.9-17.55L686.77-17.55Q688.96-17.55 690.61-18.07 692.26-18.58 693.37-19.51 694.48-20.43 695.03-21.77 695.58-23.1 695.58-24.73L695.58-24.73Q695.58-27.93 693.38-29.68 691.19-31.42 686.77-31.42L686.77-31.42 674.9-31.42 674.9-17.55Z" opacity="1" transform="matrix(1,0,0,1,0,0)" fill="#f4efec" class="slogan-text-1" data-fill-palette-color="quaternary" id="text-1"></path></svg></g></svg></g></svg></g></svg></g><g transform="matrix(1,0,0,1,51.52995953615731,0)"><svg viewBox="0 0 110.0985221548425 112.41403274672933" height="112.41403274672933" width="110.0985221548425"><g><svg xmlns="http://www.w3.org/2000/svg" xmlns:xlink="http://www.w3.org/1999/xlink" version="1.1" x="0" y="0" viewBox="5.926229101651725 4.998164669684413 88.14797244590035 90.00183533031559" enable-background="new 0 0 100 100" xml:space="preserve" height="112.41403274672933" width="110.0985221548425" class="icon-icon-0" data-fill-palette-color="quaternary" id="icon-0"><path d="M34.79 21.164c0.962-0.922 1.93-1.827 2.6-2.449h-7.689c-0.699 0-1.265 0.56-1.265 1.25V84.03c0 0.69 0.566 1.25 1.265 1.25h1.483V25.166C31.185 24.91 31.185 24.619 34.79 21.164zM25.861 39.196h1.968v-9.026h-1.968c-0.207 0-0.375 0.168-0.375 0.375v8.276C25.486 39.029 25.654 39.196 25.861 39.196zM25.486 44.43c0 0.207 0.168 0.375 0.375 0.375h1.968v-4.426h-1.968c-0.207 0-0.375 0.168-0.375 0.375V44.43zM25.486 50.039c0 0.207 0.168 0.375 0.375 0.375h1.968v-4.426h-1.968c-0.207 0-0.375 0.168-0.375 0.375V50.039zM25.486 55.647c0 0.207 0.168 0.375 0.375 0.375h1.968v-4.426h-1.968c-0.207 0-0.375 0.168-0.375 0.375V55.647zM25.486 61.256c0 0.207 0.168 0.375 0.375 0.375h1.968v-4.426h-1.968c-0.207 0-0.375 0.168-0.375 0.375V61.256zM56.671 36.13c-1.07 0-1.938 0.868-1.938 1.938 0 1.07 0.868 1.938 1.938 1.938s1.938-0.868 1.938-1.938C58.609 36.998 57.742 36.13 56.671 36.13zM56.671 39.486c-0.783 0-1.418-0.635-1.418-1.418 0-0.783 0.635-1.418 1.418-1.418 0.783 0 1.418 0.635 1.418 1.418C58.089 38.851 57.454 39.486 56.671 39.486zM64.679 30.735H48.658v9.742l3.428 0.752v16.002l-3.428 0.752v9.809h16.021c0.69 0 1.25-0.56 1.25-1.25V31.985C65.928 31.294 65.369 30.735 64.679 30.735zM56.671 65.015c-1.869 0-3.385-1.515-3.385-3.385 0-1.869 1.515-3.385 3.385-3.385s3.385 1.515 3.385 3.385C60.056 63.5 58.54 65.015 56.671 65.015zM56.671 41.453c-1.869 0-3.385-1.515-3.385-3.385 0-1.869 1.515-3.385 3.385-3.385s3.385 1.515 3.385 3.385C60.056 39.938 58.54 41.453 56.671 41.453zM56.671 59.692c-1.07 0-1.938 0.868-1.938 1.938 0 1.07 0.868 1.938 1.938 1.938s1.938-0.868 1.938-1.938C58.609 60.56 57.742 59.692 56.671 59.692zM56.671 63.048c-0.783 0-1.418-0.635-1.418-1.417 0-0.783 0.635-1.418 1.418-1.418 0.783 0 1.418 0.635 1.418 1.418C58.089 62.414 57.454 63.048 56.671 63.048zM51.565 41.648l-3.428-0.752V30.735h-3.09c-0.69 0-1.25 0.56-1.25 1.25v34.558c0 0.69 0.56 1.25 1.25 1.25h3.09V57.565l3.428-0.752V41.648zM46.286 53.96l-1.638-3.546h0.857v-4.072h1.562v4.072h0.857L46.286 53.96zM50.885 54.22h-1.678v-0.521h1.678V54.22zM50.885 53.068h-1.678v-0.159h1.678V53.068zM50.885 52.277h-1.678v-0.159h1.678V52.277zM50.885 51.486h-1.678v-0.159h1.678V51.486zM50.885 50.696h-1.678v-0.159h1.678V50.696zM50.885 49.905h-1.678v-0.521h1.678V49.905zM50.885 48.753h-1.678v-0.159h1.678V48.753zM50.885 47.962h-1.678v-0.159h1.678V47.962zM50.885 47.171h-1.678v-0.159h1.678V47.171zM50.885 46.38h-1.678v-0.159h1.678V46.38zM50.885 45.59h-1.678v-0.521h1.678V45.59zM94.063 46.182l-0.279-1.125c-0.05-0.201-0.253-0.323-0.454-0.274l-0.112 0.028c-0.219-0.871-0.45-1.733-0.695-2.582 0.289-0.258 0.573-0.517 0.576-0.851-0.541-2.737-2.665-9.058-2.665-9.058l-1.373 0.537c-3.267-7.133-7.655-13.167-12.994-17.794-3.842-3.329-8.108-5.885-12.68-7.596-4.453-1.667-9.101-2.499-13.797-2.468C40.1 5.06 30.758 8.727 23.288 15.326c-5.203 4.596-9.453 10.524-12.591 17.486l-1.255-0.491c0 0-2.124 6.32-2.665 9.058 0.003 0.32 0.265 0.572 0.541 0.819-0.153 0.55-0.298 1.106-0.439 1.665l-0.158-0.039c-0.215-0.053-0.432 0.078-0.485 0.292l-0.298 1.203c-0.053 0.215 0.078 0.432 0.292 0.485l0.602 0.149c0.215 0.053 0.432-0.078 0.485-0.292l0.298-1.203c0.053-0.215-0.078-0.432-0.292-0.485l-0.108-0.027c0.126-0.498 0.255-0.993 0.39-1.483 0.197 0.195 0.352 0.4 0.352 0.647 0 0.68-0.989 17.064 6.43 30.975 0.433 0.556 2.535 0.464 2.535 0.464l1.793 3.555c0 0 0.42 0.059 0.862-0.239-0.449-0.538-0.796-1.174-1.002-1.891l-3.507-12.19c-0.825-0.042-1.905-0.123-2.165-0.271 0 0-6.863-12.752-1.113-30.271l-0.759-0.297C18.734 15.93 32.941 5.452 49.593 5.348c0.083-0.001 0.164-0.001 0.246-0.001 16.63 0 30.958 10.489 38.877 27.646l-0.633 0.248c5.75 17.52-1.113 30.271-1.113 30.271-0.259 0.148-1.34 0.23-2.165 0.271L81.3 75.974c-0.206 0.716-0.554 1.353-1.002 1.891 0.262 0.176 0.513 0.226 0.677 0.239h-0.422v16.376H64.005v-7.055c0.278-0.124 0.477-0.437 0.477-0.808V85.28h5.823c0.699 0 1.265-0.56 1.265-1.25V19.965c0-0.69-0.566-1.25-1.265-1.25H38.668c-3.047 2.8-6.263 5.918-6.615 6.524V85.28h30.954v1.336c0 0.37 0.199 0.684 0.477 0.808V95h17.589V78.107c0.054 0 0.087-0.004 0.087-0.004l1.793-3.555c0 0 2.102 0.093 2.535-0.464 7.419-13.911 6.43-30.295 6.43-30.975 0-0.232 0.138-0.428 0.318-0.613 0.227 0.789 0.442 1.589 0.645 2.398l-0.115 0.029c-0.201 0.05-0.324 0.253-0.274 0.454l0.279 1.125c0.05 0.201 0.253 0.323 0.454 0.274l0.564-0.14C93.991 46.586 94.113 46.383 94.063 46.182zM35.848 72.436c-0.69 0-1.25-0.56-1.25-1.25V27.341c0-0.69 0.56-1.25 1.25-1.25h31.955c0.69 0 1.25 0.56 1.25 1.25v43.844c0 0.69-0.559 1.25-1.25 1.25H35.848zM24.756 60.814c-0.685-2.381-3.171-3.756-5.552-3.071l-0.24 0.069c-2.381 0.685-3.756 3.171-3.071 5.552l3.308 11.497c0.685 2.381 3.171 3.756 5.552 3.071l0.24-0.069c2.381-0.685 3.756-3.171 3.071-5.552L24.756 60.814zM75.122 77.932c2.381 0.685 4.867-0.69 5.552-3.071l3.308-11.497c0.685-2.381-0.69-4.867-3.071-5.552l-0.24-0.069c-2.381-0.685-4.867 0.69-5.552 3.071l-3.308 11.497c-0.685 2.381 0.69 4.867 3.071 5.552L75.122 77.932z" fill="#f4efec" data-fill-palette-color="quaternary"></path></svg></g></svg></g><g></g></svg></g></svg></g></svg></g><defs></defs></svg><rect width="333.90454557049503" height="333.90454557049503" fill="none" stroke="none" visibility="hidden"></rect></g></svg></g></svg>