<svg xmlns="http://www.w3.org/2000/svg" version="1.1" xmlns:xlink="http://www.w3.org/1999/xlink" xmlns:svgjs="http://svgjs.dev/svgjs" width="1500" height="1500" viewBox="0 0 1500 1500"><rect width="1500" height="1500" fill="#000000"></rect><g transform="matrix(0.6666666666666666,0,0,0.6666666666666666,249.78425655976667,249.78425655976673)"><svg viewBox="0 0 343 343" data-background-color="#f7d65a" preserveAspectRatio="xMidYMid meet" height="1500" width="1500" xmlns="http://www.w3.org/2000/svg" xmlns:xlink="http://www.w3.org/1999/xlink"><g id="tight-bounds" transform="matrix(1,0,0,1,0.0740000000000407,0.07400000000001228)"><svg viewBox="0 0 342.85155851775386 342.85155851775386" height="342.85155851775386" width="342.85155851775386"><g><svg></svg></g><g><svg viewBox="0 0 342.85155851775386 342.85155851775386" height="342.85155851775386" width="342.85155851775386"><g><path d="M0 171.426c0-94.676 76.75-171.426 171.426-171.426 94.676 0 171.426 76.75 171.426 171.426 0 94.676-76.75 171.426-171.426 171.426-94.676 0-171.426-76.75-171.426-171.426zM171.426 337.939c91.963 0 166.513-74.55 166.513-166.513 0-91.963-74.55-166.513-166.513-166.513-91.963 0-166.513 74.55-166.513 166.513 0 91.963 74.55 166.513 166.513 166.513z" data-fill-palette-color="tertiary" fill="#ffffff" stroke="transparent"></path><ellipse rx="164.56874808852186" ry="164.56874808852186" cx="171.42577925887693" cy="171.42577925887693" fill="#ffffff" stroke="transparent" stroke-width="0" fill-opacity="1" data-fill-palette-color="tertiary"></ellipse></g><g transform="matrix(1,0,0,1,64.84655864529837,90.89082475395766)"><svg viewBox="0 0 213.1584412271571 161.06990900983854" height="161.06990900983854" width="213.1584412271571"><g><svg viewBox="0 0 213.1584412271571 161.06990900983854" height="161.06990900983854" width="213.1584412271571"><g><svg viewBox="0 0 213.1584412271571 161.06990900983854" height="161.06990900983854" width="213.1584412271571"><g transform="matrix(1,0,0,1,0,73.42422457425022)"><svg viewBox="0 0 213.1584412271571 87.64568443558832" height="87.64568443558832" width="213.1584412271571"><g id="textblocktransform"><svg viewBox="0 0 213.1584412271571 87.64568443558832" height="87.64568443558832" width="213.1584412271571" id="textblock"><g><svg viewBox="0 0 213.1584412271571 54.47845875590356" height="54.47845875590356" width="213.1584412271571"><g transform="matrix(1,0,0,1,0,0)"><svg width="213.1584412271571" viewBox="2.1 -32.3 127.74000000000001 32.65" height="54.47845875590356" data-palette-color="#f7d65a"><path d="M13.35-32.3Q16.8-32.3 20.5-30.8L20.5-30.8 19.85-26.95 19.15-26.75Q17.7-27.85 16.07-28.45 14.45-29.05 12.85-29.05L12.85-29.05Q11-29.05 9.63-28.3 8.25-27.55 7.53-26.35 6.8-25.15 6.8-23.85L6.8-23.85Q6.8-22.5 7.63-21.48 8.45-20.45 9.7-19.7 10.95-18.95 13.1-17.9L13.1-17.9Q15.8-16.65 17.45-15.58 19.1-14.5 20.28-12.85 21.45-11.2 21.45-8.85L21.45-8.85Q21.45-6.35 20.1-4.25 18.75-2.15 16.3-0.9 13.85 0.35 10.7 0.35L10.7 0.35Q8.6 0.35 6.33-0.23 4.05-0.8 2.1-1.9L2.1-1.9 2.6-6 3.15-6.25Q4.9-4.55 7.03-3.73 9.15-2.9 11.1-2.9L11.1-2.9Q13-2.9 14.48-3.65 15.95-4.4 16.73-5.65 17.5-6.9 17.5-8.3L17.5-8.3Q17.5-10.4 15.9-11.68 14.3-12.95 11.05-14.45L11.05-14.45Q8.4-15.75 6.8-16.78 5.2-17.8 4.05-19.43 2.9-21.05 2.9-23.4L2.9-23.4Q2.9-25.85 4.23-27.9 5.55-29.95 7.93-31.13 10.3-32.3 13.35-32.3L13.35-32.3ZM48.95-24.9L48.8-7.8 48.9 0 45.2 0 45.35-7.5 45.3-10.9 31.75-10.85 31.7-7.8 31.8 0 28.1 0 28.25-7.5 28.1-24.9 31.85-24.9 31.75-14.2 38.5-14.15 45.3-14.2 45.2-24.9 48.95-24.9ZM61.65-24.9L61.5-7.8 61.6 0 57.9 0 58.05-7.5 57.9-24.9 61.65-24.9ZM82.29-10.05Q85.34-5.4 89.04-0.9L89.04-0.9 88.99-0.4Q86.89 0.25 85.54 0.35L85.54 0.35 84.89-0.05Q81.09-5.8 79.14-9.1L79.14-9.1 74.44-9.05 74.44-7.8 74.54 0 70.84 0 70.99-7.5 70.84-24.9 79.34-24.95Q83.29-24.95 85.42-23.1 87.54-21.25 87.54-17.75L87.54-17.75Q87.54-15.2 86.17-13.2 84.79-11.2 82.29-10.05L82.29-10.05ZM74.54-21.9L74.49-12.15 79.19-12Q83.64-13.25 83.64-17.45L83.64-17.45Q83.64-19.65 82.34-20.75 81.04-21.85 78.39-21.95L78.39-21.95 74.54-21.9ZM108.84-3.15L109.04-2.8 108.79 0 95.54 0 95.69-7.5 95.54-24.9 99.29-24.9 99.14-7.8 99.24-3.15 108.84-3.15ZM120.59-8.7L120.54-7.15 120.69 0 116.94 0 117.14-7.15 117.09-8.7 108.64-24.9 112.74-24.9 113.24-23.45 118.84-12.75 119.09-12.75 125.19-23.3 125.84-24.9 129.84-24.9 120.59-8.7Z" opacity="1" transform="matrix(1,0,0,1,0,0)" fill="#000000" class="wordmark-text-0" data-fill-palette-color="quaternary" id="text-0"></path></svg></g></svg></g><g transform="matrix(1,0,0,1,0,67.33951538516224)"><svg viewBox="0 0 213.1584412271571 20.306169050426067" height="20.306169050426067" width="213.1584412271571"><g transform="matrix(1,0,0,1,0,0)"><svg width="213.1584412271571" viewBox="0.4 -36.45999999577501 491.86 46.859999995775006" height="20.306169050426067" data-palette-color="#f7d65a"><path d="M16.3 0.5L13.95 0.5 5.65-25.5Q4.85-27.55 4.05-28.45 3.25-29.35 1.65-29.65L1.65-29.65Q0.95-29.8 0.68-29.9 0.4-30 0.4-30.8L0.4-30.8Q0.4-31.65 1-31.73 1.6-31.8 2.4-31.8L2.4-31.8Q5.75-31.75 7.6-30.58 9.45-29.4 10.55-26.55L10.55-26.55 16.25-8.25 16.45-8.25 22.55-31.55 25.15-31.55 33.3-8.25 33.45-8.25 39.1-27.1Q39.5-28.7 39.08-29.13 38.65-29.55 36.9-29.55L36.9-29.55Q36.4-29.55 36.05-29.65 35.7-29.75 35.65-30.6L35.65-30.6Q35.65-31 35.85-31.35 36.05-31.7 36.5-31.7L36.5-31.7Q38.1-31.65 39.28-31.6 40.45-31.55 41.95-31.55L41.95-31.55Q42.95-31.55 43.6-31.58 44.25-31.6 44.93-31.63 45.6-31.65 46.65-31.7L46.65-31.7Q47.15-31.7 47.35-31.35 47.55-31 47.55-30.6L47.55-30.6Q47.5-29.75 47.18-29.65 46.85-29.55 46.3-29.55L46.3-29.55Q44.4-29.55 43.18-28.83 41.95-28.1 41.4-26.15L41.4-26.15 33.2 0.5 30.85 0.5 22.75-23.35 16.3 0.5ZM57.45 0.6L57.45 0.6Q53.6 0.6 50.97-1.05 48.35-2.7 47.05-5.45 45.75-8.2 45.75-11.45L45.75-11.45Q45.75-13.65 46.52-15.73 47.3-17.8 48.75-19.53 50.2-21.25 52.25-22.25 54.3-23.25 56.9-23.25L56.9-23.25Q61.5-23.25 63.82-20.88 66.15-18.5 66.5-14.85L66.5-14.85Q66.5-13.1 65.52-12.55 64.55-12 63-12L63-12 50.85-12Q50.85-9.1 51.65-6.83 52.45-4.55 54.17-3.23 55.9-1.9 58.75-1.9L58.75-1.9Q60.85-1.9 62.35-2.8 63.85-3.7 65.25-5.95L65.25-5.95Q65.65-6.45 66.35-6L66.35-6Q66.75-5.8 66.85-5.38 66.95-4.95 66.75-4.65L66.75-4.65Q65.2-2.2 62.85-0.8 60.5 0.6 57.45 0.6ZM50.85-13.9L50.85-13.9 59-13.9Q60.2-13.9 60.92-14.38 61.65-14.85 61.7-16L61.7-16Q61.7-18.15 60.52-19.83 59.35-21.5 56.9-21.5L56.9-21.5Q54.4-21.5 52.72-19.5 51.05-17.5 50.85-13.9ZM73.65 0.7L73.65 0.7Q73.2 0.7 72.95 0.4 72.7 0.1 72.7-0.3L72.7-0.3 72.7-29.5Q72.7-30.4 72.62-31.18 72.55-31.95 72.05-32.43 71.55-32.9 70.15-32.9L70.15-32.9Q69.7-32.9 69.32-33.02 68.95-33.15 68.95-33.9L68.95-33.9Q68.95-34.65 69.75-34.8L69.75-34.8Q72.05-35.15 73.27-35.5 74.5-35.85 75.15-36.1 75.8-36.35 76.3-36.4L76.3-36.4Q76.7-36.45 76.97-36.25 77.25-36.05 77.25-35.45L77.25-35.45 77.25-20.35 77.4-20.35Q78.9-21.85 80.75-22.55 82.6-23.25 84.3-23.25L84.3-23.25Q87.25-23.25 89.62-21.75 92-20.25 93.4-17.63 94.8-15 94.8-11.5L94.8-11.5Q94.8-8.1 93.2-5.35 91.6-2.6 89-1 86.4 0.6 83.35 0.6L83.35 0.6Q78.9 0.6 75.65-1.85L75.65-1.85 75.4-1.85Q75.05-1.1 74.72-0.2 74.4 0.7 73.65 0.7ZM82.9-1.1L82.9-1.1Q85.9-1.1 87.8-3.85 89.7-6.6 89.7-11.3L89.7-11.3Q89.7-13.65 88.97-15.8 88.25-17.95 86.67-19.35 85.1-20.75 82.55-20.75L82.55-20.75Q80.85-20.75 79.55-20.15 78.25-19.55 77.25-18.45L77.25-18.45 77.25-5.25Q77.4-4.55 78.07-3.58 78.75-2.6 79.95-1.85 81.15-1.1 82.9-1.1ZM127.19 1L127.19 1Q124.24 0.95 121.47 0.18 118.69-0.6 116.49-2.23 114.29-3.85 112.99-6.35 111.69-8.85 111.69-12.3L111.69-12.3Q111.69-14.65 112.62-16.73 113.54-18.8 115.37-20.23 117.19-21.65 119.94-22.1L119.94-22.1 119.94-22.25Q118.29-23.5 117.54-24.95 116.79-26.4 116.79-28.1L116.79-28.1Q116.79-31.35 119.17-33.38 121.54-35.4 125.79-35.4L125.79-35.4Q127.64-35.4 129.24-34.85 130.84-34.3 131.87-33.15 132.89-32 132.89-30.2L132.89-30.2Q132.89-28.7 132.02-27.5 131.14-26.3 129.49-26.3L129.49-26.3Q128.39-26.3 127.79-26.85 127.19-27.4 127.19-27.65L127.19-27.65Q127.19-27.75 127.62-28.08 128.04-28.4 128.44-28.98 128.84-29.55 128.84-30.4L128.84-30.4Q128.84-31.9 127.79-32.75 126.74-33.6 125.24-33.6L125.24-33.6Q122.69-33.6 121.44-32.08 120.19-30.55 120.19-28.55L120.19-28.55Q120.19-24.9 123.24-23.25L123.24-23.25 124.89-23.25Q125.49-23.25 125.87-23.15 126.24-23.05 126.29-22.05L126.29-22.05Q126.29-21.6 126.07-21.23 125.84-20.85 125.34-20.85L125.34-20.85 123.59-20.85Q121.29-20.65 119.84-19.48 118.39-18.3 117.69-16.6 116.99-14.9 116.99-13.1L116.99-13.1Q116.99-9.85 118.49-7.45 119.99-5.05 122.67-3.78 125.34-2.5 128.74-2.5L128.74-2.5Q132.39-2.5 135.42-4 138.44-5.5 140.27-8.18 142.09-10.85 142.09-14.25L142.09-14.25Q142.09-16.05 141.42-17.7 140.74-19.35 139.39-20.4 138.04-21.45 136.09-21.45L136.09-21.45Q135.29-21.45 134.27-21.1 133.24-20.75 132.54-20.03 131.84-19.3 131.89-18.15L131.89-18.15Q131.94-17.5 132.34-16.93 132.74-16.35 133.59-16.2L133.59-16.2Q134.44-16.1 135.09-16.4 135.74-16.7 136.12-17.05 136.49-17.4 136.59-17.4L136.59-17.4Q136.84-17.35 137.27-16.65 137.69-15.95 137.54-14.9L137.54-14.9Q137.34-13.55 136.37-12.83 135.39-12.1 134.04-12.1L134.04-12.1Q132.14-12.1 130.99-13.63 129.84-15.15 129.84-17.55L129.84-17.55Q129.84-20.15 130.82-21.8 131.79-23.45 133.42-24.4 135.04-25.35 137.04-25.83 139.04-26.3 141.12-26.55 143.19-26.8 145.09-27.03 146.99-27.25 148.34-27.7L148.34-27.7Q149.44-28.1 150.19-28.85 150.94-29.6 150.89-30.55L150.89-30.55Q150.84-31.15 150.44-31.6 150.04-32.05 149.04-32.2L149.04-32.2Q148.19-32.3 147.54-32 146.89-31.7 146.52-31.35 146.14-31 146.04-31L146.04-31Q145.84-31.05 145.39-31.75 144.94-32.45 145.09-33.5L145.09-33.5Q145.29-34.85 146.19-35.52 147.09-36.2 148.27-36.3 149.44-36.4 150.49-35.95L150.49-35.95Q151.84-35.3 152.34-33.98 152.84-32.65 152.79-31.35L152.79-31.35Q152.74-28.6 150.97-26.65 149.19-24.7 146.32-23.68 143.44-22.65 140.04-22.65L140.04-22.65Q142.09-20.9 143.22-18.8 144.34-16.7 144.34-14.2L144.34-14.2Q144.34-9.45 142.04-6.03 139.74-2.6 135.87-0.78 131.99 1.05 127.19 1ZM164.84 0.15L164.84 0.15Q164.34 0.15 164.14-0.2 163.94-0.55 163.94-0.95L163.94-0.95Q163.99-1.8 164.34-1.9 164.69-2 165.19-2L165.19-2Q166.54-2 167.24-2.55 167.94-3.1 168.36-4 168.79-4.9 169.19-5.85L169.19-5.85 177.94-26.55Q178.44-27.75 178.14-28.38 177.84-29 177.14-29.28 176.44-29.55 175.59-29.7L175.59-29.7Q174.84-29.85 174.59-29.98 174.34-30.1 174.34-30.85L174.34-30.85Q174.34-31.7 174.94-31.78 175.54-31.85 176.34-31.85L176.34-31.85Q178.39-31.85 179.84-31.45 181.29-31.05 182.34-29.93 183.39-28.8 184.29-26.55L184.29-26.55 192.69-5.85Q193.04-5 193.44-4.1 193.84-3.2 194.51-2.63 195.19-2.05 196.24-2L196.24-2Q196.79-2 197.11-1.9 197.44-1.8 197.49-0.95L197.49-0.95Q197.49-0.55 197.26-0.2 197.04 0.15 196.59 0.15L196.59 0.15Q194.99 0.05 193.79 0.03 192.59 0 191.09 0L191.09 0Q188.14 0 184.89 0.15L184.89 0.15Q184.39 0.15 184.19-0.2 183.99-0.55 183.99-0.95L183.99-0.95Q184.04-1.8 184.39-1.9 184.74-2 185.24-2L185.24-2Q187.69-2 187.91-2.9 188.14-3.8 187.44-5.85L187.44-5.85 185.74-10 173.39-10Q172.64-8.1 172.31-7.25 171.99-6.4 171.91-6.15 171.84-5.9 171.79-5.85L171.79-5.85Q171.24-4.15 171.21-3.33 171.19-2.5 172.01-2.25 172.84-2 174.79-2L174.79-2Q175.34-2 175.66-1.9 175.99-1.8 176.04-0.95L176.04-0.95Q176.04-0.55 175.81-0.2 175.59 0.15 175.14 0.15L175.14 0.15Q173.54 0.05 172.36 0.03 171.19 0 169.69 0L169.69 0Q168.69 0 168.01 0.03 167.34 0.05 166.64 0.08 165.94 0.1 164.84 0.15ZM179.64-25L174.34-12.15 184.84-12.15 179.79-25 179.64-25ZM198.68 10.4L198.68 10.4Q198.33 10.4 198.11 10.08 197.88 9.75 197.88 9.4L197.88 9.4Q197.93 8.65 198.26 8.58 198.58 8.5 199.03 8.5L199.03 8.5Q200.38 8.5 200.91 8.03 201.43 7.55 201.53 6.75 201.63 5.95 201.63 5.1L201.63 5.1 201.63-16.6Q201.63-17.5 201.56-18.28 201.48-19.05 200.98-19.53 200.48-20 199.08-20L199.08-20Q198.63-20 198.26-20.13 197.88-20.25 197.88-21L197.88-21Q197.88-21.75 198.68-21.9L198.68-21.9Q200.98-22.25 202.21-22.6 203.43-22.95 204.06-23.2 204.68-23.45 205.18-23.5L205.18-23.5Q205.58-23.55 205.86-23.35 206.13-23.15 206.13-22.55L206.13-22.55 206.13-20.15 206.28-20.15Q207.68-21.45 209.63-22.35 211.58-23.25 213.38-23.25L213.38-23.25Q216.43-23.25 218.78-21.75 221.13-20.25 222.48-17.57 223.83-14.9 223.83-11.35L223.83-11.35Q223.83-7.75 222.18-5.05 220.53-2.35 217.93-0.88 215.33 0.6 212.38 0.6L212.38 0.6Q210.13 0.6 208.76 0.13 207.38-0.35 206.38-0.95L206.38-0.95 206.18-0.95 206.18 5.1Q206.18 5.95 206.28 6.75 206.38 7.55 206.93 8.03 207.48 8.5 208.78 8.5L208.78 8.5Q209.23 8.5 209.56 8.58 209.88 8.65 209.93 9.4L209.93 9.4Q209.93 9.75 209.73 10.08 209.53 10.4 209.13 10.4L209.13 10.4Q207.68 10.3 206.46 10.28 205.23 10.25 203.88 10.25L203.88 10.25Q202.53 10.25 201.33 10.28 200.13 10.3 198.68 10.4ZM211.98-1.1L211.98-1.1Q213.93-1.1 215.23-2.08 216.53-3.05 217.31-4.58 218.08-6.1 218.41-7.88 218.73-9.65 218.73-11.2L218.73-11.2Q218.73-13.55 218.01-15.73 217.28-17.9 215.71-19.33 214.13-20.75 211.58-20.75L211.58-20.75Q209.68-20.75 208.43-19.98 207.18-19.2 206.18-18.15L206.18-18.15 206.18-4.75Q206.73-3.45 208.21-2.27 209.68-1.1 211.98-1.1ZM227.58 10.4L227.58 10.4Q227.23 10.4 227.01 10.08 226.78 9.75 226.78 9.4L226.78 9.4Q226.83 8.65 227.16 8.58 227.48 8.5 227.93 8.5L227.93 8.5Q229.28 8.5 229.81 8.03 230.33 7.55 230.43 6.75 230.53 5.95 230.53 5.1L230.53 5.1 230.53-16.6Q230.53-17.5 230.46-18.28 230.38-19.05 229.88-19.53 229.38-20 227.98-20L227.98-20Q227.53-20 227.16-20.13 226.78-20.25 226.78-21L226.78-21Q226.78-21.75 227.58-21.9L227.58-21.9Q229.88-22.25 231.11-22.6 232.33-22.95 232.96-23.2 233.58-23.45 234.08-23.5L234.08-23.5Q234.48-23.55 234.76-23.35 235.03-23.15 235.03-22.55L235.03-22.55 235.03-20.15 235.18-20.15Q236.58-21.45 238.53-22.35 240.48-23.25 242.28-23.25L242.28-23.25Q245.33-23.25 247.68-21.75 250.03-20.25 251.38-17.57 252.73-14.9 252.73-11.35L252.73-11.35Q252.73-7.75 251.08-5.05 249.43-2.35 246.83-0.88 244.23 0.6 241.28 0.6L241.28 0.6Q239.03 0.6 237.66 0.13 236.28-0.35 235.28-0.95L235.28-0.95 235.08-0.95 235.08 5.1Q235.08 5.95 235.18 6.75 235.28 7.55 235.83 8.03 236.38 8.5 237.68 8.5L237.68 8.5Q238.13 8.5 238.46 8.58 238.78 8.65 238.83 9.4L238.83 9.4Q238.83 9.75 238.63 10.08 238.43 10.4 238.03 10.4L238.03 10.4Q236.58 10.3 235.36 10.28 234.13 10.25 232.78 10.25L232.78 10.25Q231.43 10.25 230.23 10.28 229.03 10.3 227.58 10.4ZM240.88-1.1L240.88-1.1Q242.83-1.1 244.13-2.08 245.43-3.05 246.21-4.58 246.98-6.1 247.31-7.88 247.63-9.65 247.63-11.2L247.63-11.2Q247.63-13.55 246.91-15.73 246.18-17.9 244.61-19.33 243.03-20.75 240.48-20.75L240.48-20.75Q238.58-20.75 237.33-19.98 236.08-19.2 235.08-18.15L235.08-18.15 235.08-4.75Q235.63-3.45 237.11-2.27 238.58-1.1 240.88-1.1ZM268.98 0.15L268.98 0.15Q268.53 0.15 268.33-0.2 268.13-0.55 268.13-0.95L268.13-0.95Q268.18-1.8 268.53-1.9 268.88-2 269.38-2L269.38-2Q270.98-2 271.63-2.58 272.28-3.15 272.45-4.03 272.63-4.9 272.63-5.85L272.63-5.85 272.63-25.7Q272.63-26.65 272.45-27.53 272.28-28.4 271.63-28.98 270.98-29.55 269.38-29.55L269.38-29.55Q268.88-29.55 268.53-29.65 268.18-29.75 268.13-30.6L268.13-30.6Q268.13-31 268.33-31.35 268.53-31.7 268.98-31.7L268.98-31.7Q270.63-31.65 272.03-31.6 273.43-31.55 274.93-31.55L274.93-31.55 282.73-31.55Q287.53-31.55 291.43-29.65 295.33-27.75 297.63-24.2 299.93-20.65 299.93-15.6L299.93-15.6Q299.93-11.6 298.38-8.65 296.83-5.7 294.23-3.78 291.63-1.85 288.4-0.93 285.18 0 281.83 0L281.83 0 274.93 0Q273.43 0 272.03 0.03 270.63 0.05 268.98 0.15ZM282.58-1.85L282.58-1.85Q286.63-1.85 289.13-3.58 291.63-5.3 292.75-8.4 293.88-11.5 293.88-15.6L293.88-15.6Q293.88-19.7 292.43-22.9 290.98-26.1 288.2-27.93 285.43-29.75 281.48-29.75L281.48-29.75Q280.68-29.75 279.38-29.73 278.08-29.7 277.58-29.7L277.58-29.7 277.58-5.25Q277.58-3.25 278.8-2.55 280.03-1.85 282.58-1.85ZM316.12 0.6L316.12 0.6Q312.27 0.6 309.65-1.05 307.02-2.7 305.72-5.45 304.42-8.2 304.42-11.45L304.42-11.45Q304.42-13.65 305.2-15.73 305.97-17.8 307.42-19.53 308.87-21.25 310.92-22.25 312.97-23.25 315.57-23.25L315.57-23.25Q320.17-23.25 322.5-20.88 324.82-18.5 325.17-14.85L325.17-14.85Q325.17-13.1 324.2-12.55 323.22-12 321.67-12L321.67-12 309.52-12Q309.52-9.1 310.32-6.83 311.12-4.55 312.85-3.23 314.57-1.9 317.42-1.9L317.42-1.9Q319.52-1.9 321.02-2.8 322.52-3.7 323.92-5.95L323.92-5.95Q324.32-6.45 325.02-6L325.02-6Q325.42-5.8 325.52-5.38 325.62-4.95 325.42-4.65L325.42-4.65Q323.87-2.2 321.52-0.8 319.17 0.6 316.12 0.6ZM309.52-13.9L309.52-13.9 317.67-13.9Q318.87-13.9 319.6-14.38 320.32-14.85 320.37-16L320.37-16Q320.37-18.15 319.2-19.83 318.02-21.5 315.57-21.5L315.57-21.5Q313.07-21.5 311.4-19.5 309.72-17.5 309.52-13.9ZM340.87 0.5L338.77 0.5Q337.52-2.25 336.27-5.5 335.02-8.75 333.82-11.85 332.62-14.95 331.52-17.25L331.52-17.25Q330.72-19.1 329.97-19.88 329.22-20.65 327.72-20.85L327.72-20.85Q327.07-20.95 326.85-21.05 326.62-21.15 326.57-21.8L326.57-21.8Q326.52-22.65 327.05-22.73 327.57-22.8 328.32-22.85L328.32-22.85Q331.42-23 333.17-21.95 334.92-20.9 336.02-18.4L336.02-18.4Q336.72-16.85 337.6-14.55 338.47-12.25 339.42-9.9 340.37-7.55 341.27-5.65L341.27-5.65 341.42-5.65 346.37-18.75Q346.87-20.2 346.42-20.55 345.97-20.9 344.47-20.9L344.47-20.9Q344.02-20.9 343.72-20.98 343.42-21.05 343.37-21.8L343.37-21.8Q343.37-22.1 343.55-22.45 343.72-22.8 344.07-22.8L344.07-22.8Q345.52-22.75 346.57-22.7 347.62-22.65 348.92-22.65L348.92-22.65Q349.82-22.65 350.37-22.68 350.92-22.7 351.52-22.73 352.12-22.75 353.07-22.8L353.07-22.8Q353.47-22.8 353.65-22.45 353.82-22.1 353.82-21.8L353.82-21.8Q353.77-21.05 353.45-20.98 353.12-20.9 352.72-20.9L352.72-20.9Q351.07-20.9 350.1-20.3 349.12-19.7 348.42-17.95L348.42-17.95Q348.42-17.95 347.9-16.63 347.37-15.3 346.52-13.2 345.67-11.1 344.72-8.75 343.77-6.4 342.9-4.3 342.02-2.2 341.47-0.85 340.92 0.5 340.87 0.5L340.87 0.5ZM366.02 0.6L366.02 0.6Q362.17 0.6 359.54-1.05 356.92-2.7 355.62-5.45 354.32-8.2 354.32-11.45L354.32-11.45Q354.32-13.65 355.09-15.73 355.87-17.8 357.32-19.53 358.77-21.25 360.82-22.25 362.87-23.25 365.47-23.25L365.47-23.25Q370.07-23.25 372.39-20.88 374.72-18.5 375.07-14.85L375.07-14.85Q375.07-13.1 374.09-12.55 373.12-12 371.57-12L371.57-12 359.42-12Q359.42-9.1 360.22-6.83 361.02-4.55 362.74-3.23 364.47-1.9 367.32-1.9L367.32-1.9Q369.42-1.9 370.92-2.8 372.42-3.7 373.82-5.95L373.82-5.95Q374.22-6.45 374.92-6L374.92-6Q375.32-5.8 375.42-5.38 375.52-4.95 375.32-4.65L375.32-4.65Q373.77-2.2 371.42-0.8 369.07 0.6 366.02 0.6ZM359.42-13.9L359.42-13.9 367.57-13.9Q368.77-13.9 369.49-14.38 370.22-14.85 370.27-16L370.27-16Q370.27-18.15 369.09-19.83 367.92-21.5 365.47-21.5L365.47-21.5Q362.97-21.5 361.29-19.5 359.62-17.5 359.42-13.9ZM378.42 0.15L378.42 0.15Q378.07 0.15 377.84-0.18 377.62-0.5 377.62-0.85L377.62-0.85Q377.67-1.6 377.99-1.68 378.32-1.75 378.77-1.75L378.77-1.75Q380.17-1.75 380.69-2.23 381.22-2.7 381.29-3.5 381.37-4.3 381.37-5.15L381.37-5.15 381.37-29.55Q381.37-30.45 381.29-31.23 381.22-32 380.72-32.48 380.22-32.95 378.82-32.95L378.82-32.95Q378.37-32.95 377.99-33.08 377.62-33.2 377.62-33.95L377.62-33.95Q377.62-34.7 378.42-34.85L378.42-34.85Q380.72-35.2 381.94-35.55 383.17-35.9 383.82-36.15 384.47-36.4 384.97-36.45L384.97-36.45Q385.37-36.5 385.64-36.3 385.92-36.1 385.92-35.5L385.92-35.5 385.92-5.15Q385.92-4.3 385.99-3.5 386.07-2.7 386.59-2.23 387.12-1.75 388.52-1.75L388.52-1.75Q388.97-1.75 389.29-1.68 389.62-1.6 389.67-0.85L389.67-0.85Q389.67-0.5 389.47-0.18 389.27 0.15 388.87 0.15L388.87 0.15Q387.42 0.05 386.19 0.03 384.97 0 383.62 0L383.62 0Q382.27 0 381.07 0.03 379.87 0.05 378.42 0.15ZM404.11 0.6L404.11 0.6Q400.61 0.6 397.99-1.05 395.36-2.7 393.91-5.35 392.46-8 392.46-11L392.46-11Q392.46-13.95 393.51-16.25 394.56-18.55 396.29-20.1 398.01-21.65 400.06-22.45 402.11-23.25 404.11-23.25L404.11-23.25Q407.61-23.25 410.24-21.6 412.86-19.95 414.31-17.3 415.76-14.65 415.76-11.65L415.76-11.65Q415.76-8.7 414.69-6.4 413.61-4.1 411.89-2.55 410.16-1 408.11-0.2 406.06 0.6 404.11 0.6ZM404.11-1.25L404.11-1.25Q406.56-1.25 407.99-2.7 409.41-4.15 410.04-6.53 410.66-8.9 410.66-11.65L410.66-11.65Q410.66-14.3 410.01-16.5 409.36-18.7 407.91-20.05 406.46-21.4 404.11-21.4L404.11-21.4Q401.66-21.4 400.21-19.98 398.76-18.55 398.16-16.23 397.56-13.9 397.56-11.1L397.56-11.1Q397.56-8.5 398.19-6.25 398.81-4 400.26-2.63 401.71-1.25 404.11-1.25ZM419.46 10.4L419.46 10.4Q419.11 10.4 418.89 10.08 418.66 9.75 418.66 9.4L418.66 9.4Q418.71 8.65 419.04 8.58 419.36 8.5 419.81 8.5L419.81 8.5Q421.16 8.5 421.69 8.03 422.21 7.55 422.31 6.75 422.41 5.95 422.41 5.1L422.41 5.1 422.41-16.6Q422.41-17.5 422.34-18.28 422.26-19.05 421.76-19.53 421.26-20 419.86-20L419.86-20Q419.41-20 419.04-20.13 418.66-20.25 418.66-21L418.66-21Q418.66-21.75 419.46-21.9L419.46-21.9Q421.76-22.25 422.99-22.6 424.21-22.95 424.84-23.2 425.46-23.45 425.96-23.5L425.96-23.5Q426.36-23.55 426.64-23.35 426.91-23.15 426.91-22.55L426.91-22.55 426.91-20.15 427.06-20.15Q428.46-21.45 430.41-22.35 432.36-23.25 434.16-23.25L434.16-23.25Q437.21-23.25 439.56-21.75 441.91-20.25 443.26-17.57 444.61-14.9 444.61-11.35L444.61-11.35Q444.61-7.75 442.96-5.05 441.31-2.35 438.71-0.88 436.11 0.6 433.16 0.6L433.16 0.6Q430.91 0.6 429.54 0.13 428.16-0.35 427.16-0.95L427.16-0.95 426.96-0.95 426.96 5.1Q426.96 5.95 427.06 6.75 427.16 7.55 427.71 8.03 428.26 8.5 429.56 8.5L429.56 8.5Q430.01 8.5 430.34 8.58 430.66 8.65 430.71 9.4L430.71 9.4Q430.71 9.75 430.51 10.08 430.31 10.4 429.91 10.4L429.91 10.4Q428.46 10.3 427.24 10.28 426.01 10.25 424.66 10.25L424.66 10.25Q423.31 10.25 422.11 10.28 420.91 10.3 419.46 10.4ZM432.76-1.1L432.76-1.1Q434.71-1.1 436.01-2.08 437.31-3.05 438.09-4.58 438.86-6.1 439.19-7.88 439.51-9.65 439.51-11.2L439.51-11.2Q439.51-13.55 438.79-15.73 438.06-17.9 436.49-19.33 434.91-20.75 432.36-20.75L432.36-20.75Q430.46-20.75 429.21-19.98 427.96-19.2 426.96-18.15L426.96-18.15 426.96-4.75Q427.51-3.45 428.99-2.27 430.46-1.1 432.76-1.1ZM460.46 0.6L460.46 0.6Q456.61 0.6 453.98-1.05 451.36-2.7 450.06-5.45 448.76-8.2 448.76-11.45L448.76-11.45Q448.76-13.65 449.53-15.73 450.31-17.8 451.76-19.53 453.21-21.25 455.26-22.25 457.31-23.25 459.91-23.25L459.91-23.25Q464.51-23.25 466.83-20.88 469.16-18.5 469.51-14.85L469.51-14.85Q469.51-13.1 468.53-12.55 467.56-12 466.01-12L466.01-12 453.86-12Q453.86-9.1 454.66-6.83 455.46-4.55 457.18-3.23 458.91-1.9 461.76-1.9L461.76-1.9Q463.86-1.9 465.36-2.8 466.86-3.7 468.26-5.95L468.26-5.95Q468.66-6.45 469.36-6L469.36-6Q469.76-5.8 469.86-5.38 469.96-4.95 469.76-4.65L469.76-4.65Q468.21-2.2 465.86-0.8 463.51 0.6 460.46 0.6ZM453.86-13.9L453.86-13.9 462.01-13.9Q463.21-13.9 463.93-14.38 464.66-14.85 464.71-16L464.71-16Q464.71-18.15 463.53-19.83 462.36-21.5 459.91-21.5L459.91-21.5Q457.41-21.5 455.73-19.5 454.06-17.5 453.86-13.9ZM474.26 0.15L474.26 0.15Q473.91 0.15 473.68-0.18 473.46-0.5 473.46-0.85L473.46-0.85Q473.56-1.6 473.86-1.68 474.16-1.75 474.66-1.75L474.66-1.75Q476.06-1.75 476.56-2.23 477.06-2.7 477.13-3.5 477.21-4.3 477.21-5.15L477.21-5.15 477.21-16.6Q477.21-17.5 477.13-18.28 477.06-19.05 476.56-19.53 476.06-20 474.66-20L474.66-20Q474.21-20 473.83-20.13 473.46-20.25 473.46-21L473.46-21Q473.46-21.75 474.26-21.9L474.26-21.9Q476.56-22.25 477.78-22.6 479.01-22.95 479.63-23.2 480.26-23.45 480.76-23.5L480.76-23.5Q481.16-23.55 481.43-23.35 481.71-23.15 481.71-22.55L481.71-22.55 481.71-19.45 481.86-19.45Q483.56-21.1 485.36-22.18 487.16-23.25 488.66-23.25L488.66-23.25Q490.41-23.25 491.33-21.95 492.26-20.65 492.26-19.2L492.26-19.2Q492.26-17.95 491.46-16.78 490.66-15.6 489.06-15.6L489.06-15.6Q488.26-15.6 487.78-15.93 487.31-16.25 487.26-16.4L487.26-16.4Q487.26-16.5 487.73-17 488.21-17.5 488.21-18.25L488.21-18.25Q488.21-19.15 487.73-19.7 487.26-20.25 486.46-20.25L486.46-20.25Q485.61-20.25 484.28-19.4 482.96-18.55 481.76-17.35L481.76-17.35 481.76-5.15Q481.76-4.3 481.83-3.5 481.91-2.7 482.43-2.23 482.96-1.75 484.36-1.75L484.36-1.75Q484.81-1.75 485.13-1.68 485.46-1.6 485.51-0.85L485.51-0.85Q485.51-0.5 485.31-0.18 485.11 0.15 484.71 0.15L484.71 0.15Q483.26 0.05 482.03 0.03 480.81 0 479.46 0L479.46 0Q478.11 0 476.91 0.03 475.71 0.05 474.26 0.15Z" opacity="1" transform="matrix(1,0,0,1,0,0)" fill="#000000" class="slogan-text-1" data-fill-palette-color="quaternary" id="text-1"></path></svg></g></svg></g></svg></g></svg></g><g transform="matrix(1,0,0,1,76.29763664108279,0)"><svg viewBox="0 0 60.563167944991534 60.563167944991534" height="60.563167944991534" width="60.563167944991534"><g><svg xmlns:x="http://ns.adobe.com/Extensibility/1.0/" xmlns:i="http://ns.adobe.com/AdobeIllustrator/10.0/" xmlns:graph="http://ns.adobe.com/Graphs/1.0/" xmlns="http://www.w3.org/2000/svg" xmlns:xlink="http://www.w3.org/1999/xlink" version="1.1" x="0" y="0" viewBox="5 5 54 54" enable-background="new 0 0 64 64" xml:space="preserve" height="60.563167944991534" width="60.563167944991534" class="icon-icon-0" data-fill-palette-color="quaternary" id="icon-0"><g fill="#f7d65a" data-fill-palette-color="quaternary"><path d="M32 5C17.112 5 5 17.112 5 32s12.112 27 27 27 27-12.112 27-27S46.888 5 32 5zM51.77 47.275c-2.293-1.221-5.075-2.225-8.159-2.948 0.822-3.401 1.31-7.233 1.378-11.327h11.986C56.763 38.362 54.854 43.294 51.77 47.275zM7.025 33h4.144c0.428 1.357 1.684 2.351 3.181 2.351 1.537 0 2.822-1.046 3.215-2.459C17.698 32.956 17.842 33 18 33h1.012c0.068 4.034 0.542 7.816 1.343 11.181-3.115 0.679-5.946 1.638-8.326 2.838C9.062 43.083 7.233 38.247 7.025 33zM12.076 16.921c2.31 1.303 5.112 2.353 8.226 3.115-0.77 3.31-1.224 7.016-1.29 10.964H18c-0.158 0-0.302 0.044-0.435 0.109-0.393-1.414-1.678-2.459-3.215-2.459-1.497 0-2.753 0.993-3.181 2.351H7.025C7.234 25.726 9.082 20.868 12.076 16.921zM32 25c0.551 0 1 0.449 1 1s-0.449 1-1 1-1-0.449-1-1S31.449 25 32 25zM33 28.816c1.161-0.415 2-1.514 2-2.816s-0.839-2.401-2-2.816v-1.732c3.021-0.016 5.976-0.278 8.766-0.749 0.72 3.132 1.155 6.626 1.223 10.297H33V28.816zM33 19.452V7.113c3.437 0.743 6.471 5.258 8.271 11.65C38.643 19.196 35.854 19.436 33 19.452zM31 7.113v12.303c-2.863-0.087-5.625-0.39-8.203-0.891C24.605 12.259 27.607 7.846 31 7.113zM31 21.432v1.752c-1.162 0.415-2 1.514-2 2.816s0.838 2.401 2 2.815V31h-9.988c0.069-3.76 0.523-7.335 1.275-10.526C25.028 21.015 27.967 21.343 31 21.432zM15.701 32c0 0.745-0.606 1.351-1.351 1.351S13 32.745 13 32s0.606-1.351 1.351-1.351S15.701 31.255 15.701 32zM21.012 33H31v10.018c-2.985 0.034-5.9 0.304-8.65 0.781C21.56 40.541 21.083 36.866 21.012 33zM31 45.017v11.87c-3.347-0.723-6.313-5.023-8.129-11.152C25.453 45.297 28.191 45.05 31 45.017zM33 56.887v-11.86c0.064 0.002 0.13 0.002 0.193 0.004C33.616 46.177 34.709 47 36 47c1.125 0 2.095-0.629 2.608-1.548 0.846 0.111 1.676 0.241 2.489 0.392C39.279 51.916 36.327 56.168 33 56.887zM36 45c-0.552 0-1-0.448-1-1s0.448-1 1-1 1 0.448 1 1S36.552 45 36 45zM38.947 43.481C38.7 42.074 37.477 41 36 41c-1.313 0-2.42 0.854-2.825 2.03-0.058-0.001-0.116-0.002-0.175-0.003V33h9.988c-0.071 3.91-0.56 7.623-1.365 10.908C40.748 43.742 39.855 43.602 38.947 43.481zM44.988 31c-0.064-3.829-0.493-7.432-1.222-10.666 3.201-0.68 6.104-1.659 8.542-2.887 2.766 3.849 4.467 8.51 4.666 13.552H44.988zM51.047 15.833c-2.235 1.081-4.864 1.953-7.767 2.563-1.282-4.651-3.211-8.394-5.552-10.727C43.007 8.913 47.645 11.83 51.047 15.833zM26.272 7.67c-2.29 2.282-4.186 5.909-5.468 10.419-2.8-0.683-5.322-1.606-7.424-2.749C16.739 11.59 21.211 8.861 26.272 7.67zM13.338 48.611c2.173-1.047 4.719-1.893 7.522-2.498 1.281 4.417 3.156 7.969 5.412 10.217C21.189 55.134 16.702 52.386 13.338 48.611zM37.729 56.33c2.23-2.223 4.088-5.723 5.367-10.071 2.77 0.646 5.274 1.522 7.361 2.585C47.117 52.5 42.707 55.158 37.729 56.33z" fill="#000000" data-fill-palette-color="quaternary"></path></g></svg><g></g></g></svg></g><g></g></svg></g></svg></g></svg></g></svg></g><defs></defs></svg><rect width="342.85155851775386" height="342.85155851775386" fill="none" stroke="none" visibility="hidden"></rect></g></svg></g></svg>